%TF.GenerationSoftware,KiCad,Pcbnew,5.1.10-88a1d61d58~88~ubuntu18.04.1*%
%TF.CreationDate,2021-06-11T13:40:42+04:00*%
%TF.ProjectId,DetecteurPresence,44657465-6374-4657-9572-50726573656e,1.0*%
%TF.SameCoordinates,Original*%
%TF.FileFunction,Soldermask,Top*%
%TF.FilePolarity,Negative*%
%FSLAX46Y46*%
G04 Gerber Fmt 4.6, Leading zero omitted, Abs format (unit mm)*
G04 Created by KiCad (PCBNEW 5.1.10-88a1d61d58~88~ubuntu18.04.1) date 2021-06-11 13:40:42*
%MOMM*%
%LPD*%
G01*
G04 APERTURE LIST*
%ADD10C,1.400000*%
%ADD11C,3.200000*%
%ADD12R,1.600000X1.600000*%
%ADD13C,1.600000*%
%ADD14C,1.800000*%
%ADD15R,1.800000X1.800000*%
%ADD16O,1.600000X1.600000*%
%ADD17C,3.000000*%
%ADD18R,3.000000X3.000000*%
%ADD19C,2.600000*%
%ADD20R,1.200000X1.200000*%
%ADD21R,1.500000X1.600000*%
G04 APERTURE END LIST*
%TO.C,R7*%
G36*
G01*
X59632001Y-33398000D02*
X58731999Y-33398000D01*
G75*
G02*
X58482000Y-33148001I0J249999D01*
G01*
X58482000Y-32447999D01*
G75*
G02*
X58731999Y-32198000I249999J0D01*
G01*
X59632001Y-32198000D01*
G75*
G02*
X59882000Y-32447999I0J-249999D01*
G01*
X59882000Y-33148001D01*
G75*
G02*
X59632001Y-33398000I-249999J0D01*
G01*
G37*
G36*
G01*
X59632001Y-35398000D02*
X58731999Y-35398000D01*
G75*
G02*
X58482000Y-35148001I0J249999D01*
G01*
X58482000Y-34447999D01*
G75*
G02*
X58731999Y-34198000I249999J0D01*
G01*
X59632001Y-34198000D01*
G75*
G02*
X59882000Y-34447999I0J-249999D01*
G01*
X59882000Y-35148001D01*
G75*
G02*
X59632001Y-35398000I-249999J0D01*
G01*
G37*
%TD*%
D10*
%TO.C,TP8*%
X31775400Y-23469600D03*
X29235400Y-23469600D03*
%TD*%
D11*
%TO.C,REF\u002A\u002A*%
X74000000Y-54000000D03*
%TD*%
%TO.C,REF\u002A\u002A*%
X24000000Y-24000000D03*
%TD*%
%TO.C,C1*%
G36*
G01*
X24417000Y-49345000D02*
X25367000Y-49345000D01*
G75*
G02*
X25617000Y-49595000I0J-250000D01*
G01*
X25617000Y-50270000D01*
G75*
G02*
X25367000Y-50520000I-250000J0D01*
G01*
X24417000Y-50520000D01*
G75*
G02*
X24167000Y-50270000I0J250000D01*
G01*
X24167000Y-49595000D01*
G75*
G02*
X24417000Y-49345000I250000J0D01*
G01*
G37*
G36*
G01*
X24417000Y-47270000D02*
X25367000Y-47270000D01*
G75*
G02*
X25617000Y-47520000I0J-250000D01*
G01*
X25617000Y-48195000D01*
G75*
G02*
X25367000Y-48445000I-250000J0D01*
G01*
X24417000Y-48445000D01*
G75*
G02*
X24167000Y-48195000I0J250000D01*
G01*
X24167000Y-47520000D01*
G75*
G02*
X24417000Y-47270000I250000J0D01*
G01*
G37*
%TD*%
D12*
%TO.C,C2*%
X60500000Y-24500000D03*
D13*
X60500000Y-22500000D03*
%TD*%
%TO.C,C3*%
X37000000Y-22500000D03*
D12*
X37000000Y-24500000D03*
%TD*%
%TO.C,C4*%
G36*
G01*
X31978000Y-44991000D02*
X31978000Y-45941000D01*
G75*
G02*
X31728000Y-46191000I-250000J0D01*
G01*
X31053000Y-46191000D01*
G75*
G02*
X30803000Y-45941000I0J250000D01*
G01*
X30803000Y-44991000D01*
G75*
G02*
X31053000Y-44741000I250000J0D01*
G01*
X31728000Y-44741000D01*
G75*
G02*
X31978000Y-44991000I0J-250000D01*
G01*
G37*
G36*
G01*
X29903000Y-44991000D02*
X29903000Y-45941000D01*
G75*
G02*
X29653000Y-46191000I-250000J0D01*
G01*
X28978000Y-46191000D01*
G75*
G02*
X28728000Y-45941000I0J250000D01*
G01*
X28728000Y-44991000D01*
G75*
G02*
X28978000Y-44741000I250000J0D01*
G01*
X29653000Y-44741000D01*
G75*
G02*
X29903000Y-44991000I0J-250000D01*
G01*
G37*
%TD*%
%TO.C,C5*%
G36*
G01*
X23401000Y-54065500D02*
X24351000Y-54065500D01*
G75*
G02*
X24601000Y-54315500I0J-250000D01*
G01*
X24601000Y-54990500D01*
G75*
G02*
X24351000Y-55240500I-250000J0D01*
G01*
X23401000Y-55240500D01*
G75*
G02*
X23151000Y-54990500I0J250000D01*
G01*
X23151000Y-54315500D01*
G75*
G02*
X23401000Y-54065500I250000J0D01*
G01*
G37*
G36*
G01*
X23401000Y-51990500D02*
X24351000Y-51990500D01*
G75*
G02*
X24601000Y-52240500I0J-250000D01*
G01*
X24601000Y-52915500D01*
G75*
G02*
X24351000Y-53165500I-250000J0D01*
G01*
X23401000Y-53165500D01*
G75*
G02*
X23151000Y-52915500I0J250000D01*
G01*
X23151000Y-52240500D01*
G75*
G02*
X23401000Y-51990500I250000J0D01*
G01*
G37*
%TD*%
%TO.C,C6*%
G36*
G01*
X35131500Y-31783000D02*
X35131500Y-32733000D01*
G75*
G02*
X34881500Y-32983000I-250000J0D01*
G01*
X34206500Y-32983000D01*
G75*
G02*
X33956500Y-32733000I0J250000D01*
G01*
X33956500Y-31783000D01*
G75*
G02*
X34206500Y-31533000I250000J0D01*
G01*
X34881500Y-31533000D01*
G75*
G02*
X35131500Y-31783000I0J-250000D01*
G01*
G37*
G36*
G01*
X33056500Y-31783000D02*
X33056500Y-32733000D01*
G75*
G02*
X32806500Y-32983000I-250000J0D01*
G01*
X32131500Y-32983000D01*
G75*
G02*
X31881500Y-32733000I0J250000D01*
G01*
X31881500Y-31783000D01*
G75*
G02*
X32131500Y-31533000I250000J0D01*
G01*
X32806500Y-31533000D01*
G75*
G02*
X33056500Y-31783000I0J-250000D01*
G01*
G37*
%TD*%
%TO.C,C7*%
G36*
G01*
X33078000Y-34577000D02*
X33078000Y-35527000D01*
G75*
G02*
X32828000Y-35777000I-250000J0D01*
G01*
X32153000Y-35777000D01*
G75*
G02*
X31903000Y-35527000I0J250000D01*
G01*
X31903000Y-34577000D01*
G75*
G02*
X32153000Y-34327000I250000J0D01*
G01*
X32828000Y-34327000D01*
G75*
G02*
X33078000Y-34577000I0J-250000D01*
G01*
G37*
G36*
G01*
X35153000Y-34577000D02*
X35153000Y-35527000D01*
G75*
G02*
X34903000Y-35777000I-250000J0D01*
G01*
X34228000Y-35777000D01*
G75*
G02*
X33978000Y-35527000I0J250000D01*
G01*
X33978000Y-34577000D01*
G75*
G02*
X34228000Y-34327000I250000J0D01*
G01*
X34903000Y-34327000D01*
G75*
G02*
X35153000Y-34577000I0J-250000D01*
G01*
G37*
%TD*%
%TO.C,C8*%
G36*
G01*
X65431000Y-53307000D02*
X65431000Y-52357000D01*
G75*
G02*
X65681000Y-52107000I250000J0D01*
G01*
X66356000Y-52107000D01*
G75*
G02*
X66606000Y-52357000I0J-250000D01*
G01*
X66606000Y-53307000D01*
G75*
G02*
X66356000Y-53557000I-250000J0D01*
G01*
X65681000Y-53557000D01*
G75*
G02*
X65431000Y-53307000I0J250000D01*
G01*
G37*
G36*
G01*
X67506000Y-53307000D02*
X67506000Y-52357000D01*
G75*
G02*
X67756000Y-52107000I250000J0D01*
G01*
X68431000Y-52107000D01*
G75*
G02*
X68681000Y-52357000I0J-250000D01*
G01*
X68681000Y-53307000D01*
G75*
G02*
X68431000Y-53557000I-250000J0D01*
G01*
X67756000Y-53557000D01*
G75*
G02*
X67506000Y-53307000I0J250000D01*
G01*
G37*
%TD*%
%TO.C,C9*%
G36*
G01*
X45041800Y-33067500D02*
X45991800Y-33067500D01*
G75*
G02*
X46241800Y-33317500I0J-250000D01*
G01*
X46241800Y-33992500D01*
G75*
G02*
X45991800Y-34242500I-250000J0D01*
G01*
X45041800Y-34242500D01*
G75*
G02*
X44791800Y-33992500I0J250000D01*
G01*
X44791800Y-33317500D01*
G75*
G02*
X45041800Y-33067500I250000J0D01*
G01*
G37*
G36*
G01*
X45041800Y-35142500D02*
X45991800Y-35142500D01*
G75*
G02*
X46241800Y-35392500I0J-250000D01*
G01*
X46241800Y-36067500D01*
G75*
G02*
X45991800Y-36317500I-250000J0D01*
G01*
X45041800Y-36317500D01*
G75*
G02*
X44791800Y-36067500I0J250000D01*
G01*
X44791800Y-35392500D01*
G75*
G02*
X45041800Y-35142500I250000J0D01*
G01*
G37*
%TD*%
%TO.C,C10*%
G36*
G01*
X62131500Y-42197000D02*
X62131500Y-43147000D01*
G75*
G02*
X61881500Y-43397000I-250000J0D01*
G01*
X61206500Y-43397000D01*
G75*
G02*
X60956500Y-43147000I0J250000D01*
G01*
X60956500Y-42197000D01*
G75*
G02*
X61206500Y-41947000I250000J0D01*
G01*
X61881500Y-41947000D01*
G75*
G02*
X62131500Y-42197000I0J-250000D01*
G01*
G37*
G36*
G01*
X60056500Y-42197000D02*
X60056500Y-43147000D01*
G75*
G02*
X59806500Y-43397000I-250000J0D01*
G01*
X59131500Y-43397000D01*
G75*
G02*
X58881500Y-43147000I0J250000D01*
G01*
X58881500Y-42197000D01*
G75*
G02*
X59131500Y-41947000I250000J0D01*
G01*
X59806500Y-41947000D01*
G75*
G02*
X60056500Y-42197000I0J-250000D01*
G01*
G37*
%TD*%
%TO.C,C11*%
G36*
G01*
X64690500Y-30447000D02*
X64690500Y-29497000D01*
G75*
G02*
X64940500Y-29247000I250000J0D01*
G01*
X65615500Y-29247000D01*
G75*
G02*
X65865500Y-29497000I0J-250000D01*
G01*
X65865500Y-30447000D01*
G75*
G02*
X65615500Y-30697000I-250000J0D01*
G01*
X64940500Y-30697000D01*
G75*
G02*
X64690500Y-30447000I0J250000D01*
G01*
G37*
G36*
G01*
X62615500Y-30447000D02*
X62615500Y-29497000D01*
G75*
G02*
X62865500Y-29247000I250000J0D01*
G01*
X63540500Y-29247000D01*
G75*
G02*
X63790500Y-29497000I0J-250000D01*
G01*
X63790500Y-30447000D01*
G75*
G02*
X63540500Y-30697000I-250000J0D01*
G01*
X62865500Y-30697000D01*
G75*
G02*
X62615500Y-30447000I0J250000D01*
G01*
G37*
%TD*%
%TO.C,C12*%
G36*
G01*
X67506000Y-50513000D02*
X67506000Y-49563000D01*
G75*
G02*
X67756000Y-49313000I250000J0D01*
G01*
X68431000Y-49313000D01*
G75*
G02*
X68681000Y-49563000I0J-250000D01*
G01*
X68681000Y-50513000D01*
G75*
G02*
X68431000Y-50763000I-250000J0D01*
G01*
X67756000Y-50763000D01*
G75*
G02*
X67506000Y-50513000I0J250000D01*
G01*
G37*
G36*
G01*
X65431000Y-50513000D02*
X65431000Y-49563000D01*
G75*
G02*
X65681000Y-49313000I250000J0D01*
G01*
X66356000Y-49313000D01*
G75*
G02*
X66606000Y-49563000I0J-250000D01*
G01*
X66606000Y-50513000D01*
G75*
G02*
X66356000Y-50763000I-250000J0D01*
G01*
X65681000Y-50763000D01*
G75*
G02*
X65431000Y-50513000I0J250000D01*
G01*
G37*
%TD*%
D14*
%TO.C,D1*%
X44831000Y-46024800D03*
D15*
X47371000Y-46024800D03*
%TD*%
D12*
%TO.C,D2*%
X43586400Y-38862000D03*
D16*
X51206400Y-38862000D03*
%TD*%
D15*
%TO.C,D3*%
X71374000Y-40132000D03*
D14*
X73914000Y-40132000D03*
%TD*%
D15*
%TO.C,D4*%
X50500000Y-46000000D03*
D14*
X53040000Y-46000000D03*
%TD*%
D17*
%TO.C,J1*%
X44000000Y-23500000D03*
X49000000Y-23500000D03*
D18*
X54000000Y-23500000D03*
%TD*%
%TO.C,J2*%
X72000000Y-23500000D03*
D17*
X67000000Y-23500000D03*
%TD*%
D19*
%TO.C,L1*%
X22860000Y-35052000D03*
X27860000Y-35052000D03*
%TD*%
%TO.C,R1*%
G36*
G01*
X21774999Y-47295000D02*
X22675001Y-47295000D01*
G75*
G02*
X22925000Y-47544999I0J-249999D01*
G01*
X22925000Y-48245001D01*
G75*
G02*
X22675001Y-48495000I-249999J0D01*
G01*
X21774999Y-48495000D01*
G75*
G02*
X21525000Y-48245001I0J249999D01*
G01*
X21525000Y-47544999D01*
G75*
G02*
X21774999Y-47295000I249999J0D01*
G01*
G37*
G36*
G01*
X21774999Y-49295000D02*
X22675001Y-49295000D01*
G75*
G02*
X22925000Y-49544999I0J-249999D01*
G01*
X22925000Y-50245001D01*
G75*
G02*
X22675001Y-50495000I-249999J0D01*
G01*
X21774999Y-50495000D01*
G75*
G02*
X21525000Y-50245001I0J249999D01*
G01*
X21525000Y-49544999D01*
G75*
G02*
X21774999Y-49295000I249999J0D01*
G01*
G37*
%TD*%
%TO.C,R2*%
G36*
G01*
X33255000Y-37268999D02*
X33255000Y-38169001D01*
G75*
G02*
X33005001Y-38419000I-249999J0D01*
G01*
X32304999Y-38419000D01*
G75*
G02*
X32055000Y-38169001I0J249999D01*
G01*
X32055000Y-37268999D01*
G75*
G02*
X32304999Y-37019000I249999J0D01*
G01*
X33005001Y-37019000D01*
G75*
G02*
X33255000Y-37268999I0J-249999D01*
G01*
G37*
G36*
G01*
X35255000Y-37268999D02*
X35255000Y-38169001D01*
G75*
G02*
X35005001Y-38419000I-249999J0D01*
G01*
X34304999Y-38419000D01*
G75*
G02*
X34055000Y-38169001I0J249999D01*
G01*
X34055000Y-37268999D01*
G75*
G02*
X34304999Y-37019000I249999J0D01*
G01*
X35005001Y-37019000D01*
G75*
G02*
X35255000Y-37268999I0J-249999D01*
G01*
G37*
%TD*%
%TO.C,R3*%
G36*
G01*
X40328001Y-50987000D02*
X39427999Y-50987000D01*
G75*
G02*
X39178000Y-50737001I0J249999D01*
G01*
X39178000Y-50036999D01*
G75*
G02*
X39427999Y-49787000I249999J0D01*
G01*
X40328001Y-49787000D01*
G75*
G02*
X40578000Y-50036999I0J-249999D01*
G01*
X40578000Y-50737001D01*
G75*
G02*
X40328001Y-50987000I-249999J0D01*
G01*
G37*
G36*
G01*
X40328001Y-48987000D02*
X39427999Y-48987000D01*
G75*
G02*
X39178000Y-48737001I0J249999D01*
G01*
X39178000Y-48036999D01*
G75*
G02*
X39427999Y-47787000I249999J0D01*
G01*
X40328001Y-47787000D01*
G75*
G02*
X40578000Y-48036999I0J-249999D01*
G01*
X40578000Y-48737001D01*
G75*
G02*
X40328001Y-48987000I-249999J0D01*
G01*
G37*
%TD*%
%TO.C,R4*%
G36*
G01*
X36506999Y-47803000D02*
X37407001Y-47803000D01*
G75*
G02*
X37657000Y-48052999I0J-249999D01*
G01*
X37657000Y-48753001D01*
G75*
G02*
X37407001Y-49003000I-249999J0D01*
G01*
X36506999Y-49003000D01*
G75*
G02*
X36257000Y-48753001I0J249999D01*
G01*
X36257000Y-48052999D01*
G75*
G02*
X36506999Y-47803000I249999J0D01*
G01*
G37*
G36*
G01*
X36506999Y-49803000D02*
X37407001Y-49803000D01*
G75*
G02*
X37657000Y-50052999I0J-249999D01*
G01*
X37657000Y-50753001D01*
G75*
G02*
X37407001Y-51003000I-249999J0D01*
G01*
X36506999Y-51003000D01*
G75*
G02*
X36257000Y-50753001I0J249999D01*
G01*
X36257000Y-50052999D01*
G75*
G02*
X36506999Y-49803000I249999J0D01*
G01*
G37*
%TD*%
%TO.C,R5*%
G36*
G01*
X50284801Y-34271000D02*
X49384799Y-34271000D01*
G75*
G02*
X49134800Y-34021001I0J249999D01*
G01*
X49134800Y-33320999D01*
G75*
G02*
X49384799Y-33071000I249999J0D01*
G01*
X50284801Y-33071000D01*
G75*
G02*
X50534800Y-33320999I0J-249999D01*
G01*
X50534800Y-34021001D01*
G75*
G02*
X50284801Y-34271000I-249999J0D01*
G01*
G37*
G36*
G01*
X50284801Y-36271000D02*
X49384799Y-36271000D01*
G75*
G02*
X49134800Y-36021001I0J249999D01*
G01*
X49134800Y-35320999D01*
G75*
G02*
X49384799Y-35071000I249999J0D01*
G01*
X50284801Y-35071000D01*
G75*
G02*
X50534800Y-35320999I0J-249999D01*
G01*
X50534800Y-36021001D01*
G75*
G02*
X50284801Y-36271000I-249999J0D01*
G01*
G37*
%TD*%
%TO.C,R6*%
G36*
G01*
X72761400Y-32138199D02*
X72761400Y-33038201D01*
G75*
G02*
X72511401Y-33288200I-249999J0D01*
G01*
X71811399Y-33288200D01*
G75*
G02*
X71561400Y-33038201I0J249999D01*
G01*
X71561400Y-32138199D01*
G75*
G02*
X71811399Y-31888200I249999J0D01*
G01*
X72511401Y-31888200D01*
G75*
G02*
X72761400Y-32138199I0J-249999D01*
G01*
G37*
G36*
G01*
X70761400Y-32138199D02*
X70761400Y-33038201D01*
G75*
G02*
X70511401Y-33288200I-249999J0D01*
G01*
X69811399Y-33288200D01*
G75*
G02*
X69561400Y-33038201I0J249999D01*
G01*
X69561400Y-32138199D01*
G75*
G02*
X69811399Y-31888200I249999J0D01*
G01*
X70511401Y-31888200D01*
G75*
G02*
X70761400Y-32138199I0J-249999D01*
G01*
G37*
%TD*%
%TO.C,R8*%
G36*
G01*
X69561400Y-30650601D02*
X69561400Y-29750599D01*
G75*
G02*
X69811399Y-29500600I249999J0D01*
G01*
X70511401Y-29500600D01*
G75*
G02*
X70761400Y-29750599I0J-249999D01*
G01*
X70761400Y-30650601D01*
G75*
G02*
X70511401Y-30900600I-249999J0D01*
G01*
X69811399Y-30900600D01*
G75*
G02*
X69561400Y-30650601I0J249999D01*
G01*
G37*
G36*
G01*
X71561400Y-30650601D02*
X71561400Y-29750599D01*
G75*
G02*
X71811399Y-29500600I249999J0D01*
G01*
X72511401Y-29500600D01*
G75*
G02*
X72761400Y-29750599I0J-249999D01*
G01*
X72761400Y-30650601D01*
G75*
G02*
X72511401Y-30900600I-249999J0D01*
G01*
X71811399Y-30900600D01*
G75*
G02*
X71561400Y-30650601I0J249999D01*
G01*
G37*
%TD*%
%TO.C,R9*%
G36*
G01*
X71536000Y-35502001D02*
X71536000Y-34601999D01*
G75*
G02*
X71785999Y-34352000I249999J0D01*
G01*
X72486001Y-34352000D01*
G75*
G02*
X72736000Y-34601999I0J-249999D01*
G01*
X72736000Y-35502001D01*
G75*
G02*
X72486001Y-35752000I-249999J0D01*
G01*
X71785999Y-35752000D01*
G75*
G02*
X71536000Y-35502001I0J249999D01*
G01*
G37*
G36*
G01*
X69536000Y-35502001D02*
X69536000Y-34601999D01*
G75*
G02*
X69785999Y-34352000I249999J0D01*
G01*
X70486001Y-34352000D01*
G75*
G02*
X70736000Y-34601999I0J-249999D01*
G01*
X70736000Y-35502001D01*
G75*
G02*
X70486001Y-35752000I-249999J0D01*
G01*
X69785999Y-35752000D01*
G75*
G02*
X69536000Y-35502001I0J249999D01*
G01*
G37*
%TD*%
%TO.C,R10*%
G36*
G01*
X65440000Y-45408001D02*
X65440000Y-44507999D01*
G75*
G02*
X65689999Y-44258000I249999J0D01*
G01*
X66390001Y-44258000D01*
G75*
G02*
X66640000Y-44507999I0J-249999D01*
G01*
X66640000Y-45408001D01*
G75*
G02*
X66390001Y-45658000I-249999J0D01*
G01*
X65689999Y-45658000D01*
G75*
G02*
X65440000Y-45408001I0J249999D01*
G01*
G37*
G36*
G01*
X67440000Y-45408001D02*
X67440000Y-44507999D01*
G75*
G02*
X67689999Y-44258000I249999J0D01*
G01*
X68390001Y-44258000D01*
G75*
G02*
X68640000Y-44507999I0J-249999D01*
G01*
X68640000Y-45408001D01*
G75*
G02*
X68390001Y-45658000I-249999J0D01*
G01*
X67689999Y-45658000D01*
G75*
G02*
X67440000Y-45408001I0J249999D01*
G01*
G37*
%TD*%
%TO.C,R12*%
G36*
G01*
X66672000Y-47047999D02*
X66672000Y-47948001D01*
G75*
G02*
X66422001Y-48198000I-249999J0D01*
G01*
X65721999Y-48198000D01*
G75*
G02*
X65472000Y-47948001I0J249999D01*
G01*
X65472000Y-47047999D01*
G75*
G02*
X65721999Y-46798000I249999J0D01*
G01*
X66422001Y-46798000D01*
G75*
G02*
X66672000Y-47047999I0J-249999D01*
G01*
G37*
G36*
G01*
X68672000Y-47047999D02*
X68672000Y-47948001D01*
G75*
G02*
X68422001Y-48198000I-249999J0D01*
G01*
X67721999Y-48198000D01*
G75*
G02*
X67472000Y-47948001I0J249999D01*
G01*
X67472000Y-47047999D01*
G75*
G02*
X67721999Y-46798000I249999J0D01*
G01*
X68422001Y-46798000D01*
G75*
G02*
X68672000Y-47047999I0J-249999D01*
G01*
G37*
%TD*%
%TO.C,R13*%
G36*
G01*
X55184000Y-51873999D02*
X55184000Y-52774001D01*
G75*
G02*
X54934001Y-53024000I-249999J0D01*
G01*
X54233999Y-53024000D01*
G75*
G02*
X53984000Y-52774001I0J249999D01*
G01*
X53984000Y-51873999D01*
G75*
G02*
X54233999Y-51624000I249999J0D01*
G01*
X54934001Y-51624000D01*
G75*
G02*
X55184000Y-51873999I0J-249999D01*
G01*
G37*
G36*
G01*
X57184000Y-51873999D02*
X57184000Y-52774001D01*
G75*
G02*
X56934001Y-53024000I-249999J0D01*
G01*
X56233999Y-53024000D01*
G75*
G02*
X55984000Y-52774001I0J249999D01*
G01*
X55984000Y-51873999D01*
G75*
G02*
X56233999Y-51624000I249999J0D01*
G01*
X56934001Y-51624000D01*
G75*
G02*
X57184000Y-51873999I0J-249999D01*
G01*
G37*
%TD*%
D20*
%TO.C,RV1*%
X70664000Y-45228000D03*
X70664000Y-47228000D03*
D21*
X73914000Y-46228000D03*
%TD*%
D10*
%TO.C,TP1*%
X24384000Y-41529000D03*
X26924000Y-41529000D03*
%TD*%
%TO.C,TP2*%
X31877000Y-54356000D03*
X29337000Y-54356000D03*
%TD*%
%TO.C,TP3*%
X34798000Y-43688000D03*
X37338000Y-43688000D03*
%TD*%
%TO.C,TP4*%
X53086000Y-32512000D03*
X55626000Y-32512000D03*
%TD*%
%TO.C,TP5*%
X63982600Y-38658800D03*
X66522600Y-38658800D03*
%TD*%
%TO.C,TP6*%
X56896000Y-54864000D03*
X54356000Y-54864000D03*
%TD*%
%TO.C,TP7*%
X57200800Y-38023800D03*
X54660800Y-38023800D03*
%TD*%
%TO.C,U1*%
G36*
G01*
X26903000Y-48029000D02*
X26903000Y-47729000D01*
G75*
G02*
X27053000Y-47579000I150000J0D01*
G01*
X28703000Y-47579000D01*
G75*
G02*
X28853000Y-47729000I0J-150000D01*
G01*
X28853000Y-48029000D01*
G75*
G02*
X28703000Y-48179000I-150000J0D01*
G01*
X27053000Y-48179000D01*
G75*
G02*
X26903000Y-48029000I0J150000D01*
G01*
G37*
G36*
G01*
X26903000Y-49299000D02*
X26903000Y-48999000D01*
G75*
G02*
X27053000Y-48849000I150000J0D01*
G01*
X28703000Y-48849000D01*
G75*
G02*
X28853000Y-48999000I0J-150000D01*
G01*
X28853000Y-49299000D01*
G75*
G02*
X28703000Y-49449000I-150000J0D01*
G01*
X27053000Y-49449000D01*
G75*
G02*
X26903000Y-49299000I0J150000D01*
G01*
G37*
G36*
G01*
X26903000Y-50569000D02*
X26903000Y-50269000D01*
G75*
G02*
X27053000Y-50119000I150000J0D01*
G01*
X28703000Y-50119000D01*
G75*
G02*
X28853000Y-50269000I0J-150000D01*
G01*
X28853000Y-50569000D01*
G75*
G02*
X28703000Y-50719000I-150000J0D01*
G01*
X27053000Y-50719000D01*
G75*
G02*
X26903000Y-50569000I0J150000D01*
G01*
G37*
G36*
G01*
X26903000Y-51839000D02*
X26903000Y-51539000D01*
G75*
G02*
X27053000Y-51389000I150000J0D01*
G01*
X28703000Y-51389000D01*
G75*
G02*
X28853000Y-51539000I0J-150000D01*
G01*
X28853000Y-51839000D01*
G75*
G02*
X28703000Y-51989000I-150000J0D01*
G01*
X27053000Y-51989000D01*
G75*
G02*
X26903000Y-51839000I0J150000D01*
G01*
G37*
G36*
G01*
X31853000Y-51839000D02*
X31853000Y-51539000D01*
G75*
G02*
X32003000Y-51389000I150000J0D01*
G01*
X33653000Y-51389000D01*
G75*
G02*
X33803000Y-51539000I0J-150000D01*
G01*
X33803000Y-51839000D01*
G75*
G02*
X33653000Y-51989000I-150000J0D01*
G01*
X32003000Y-51989000D01*
G75*
G02*
X31853000Y-51839000I0J150000D01*
G01*
G37*
G36*
G01*
X31853000Y-50569000D02*
X31853000Y-50269000D01*
G75*
G02*
X32003000Y-50119000I150000J0D01*
G01*
X33653000Y-50119000D01*
G75*
G02*
X33803000Y-50269000I0J-150000D01*
G01*
X33803000Y-50569000D01*
G75*
G02*
X33653000Y-50719000I-150000J0D01*
G01*
X32003000Y-50719000D01*
G75*
G02*
X31853000Y-50569000I0J150000D01*
G01*
G37*
G36*
G01*
X31853000Y-49299000D02*
X31853000Y-48999000D01*
G75*
G02*
X32003000Y-48849000I150000J0D01*
G01*
X33653000Y-48849000D01*
G75*
G02*
X33803000Y-48999000I0J-150000D01*
G01*
X33803000Y-49299000D01*
G75*
G02*
X33653000Y-49449000I-150000J0D01*
G01*
X32003000Y-49449000D01*
G75*
G02*
X31853000Y-49299000I0J150000D01*
G01*
G37*
G36*
G01*
X31853000Y-48029000D02*
X31853000Y-47729000D01*
G75*
G02*
X32003000Y-47579000I150000J0D01*
G01*
X33653000Y-47579000D01*
G75*
G02*
X33803000Y-47729000I0J-150000D01*
G01*
X33803000Y-48029000D01*
G75*
G02*
X33653000Y-48179000I-150000J0D01*
G01*
X32003000Y-48179000D01*
G75*
G02*
X31853000Y-48029000I0J150000D01*
G01*
G37*
%TD*%
%TO.C,U2*%
G36*
G01*
X57094000Y-45401000D02*
X57094000Y-45101000D01*
G75*
G02*
X57244000Y-44951000I150000J0D01*
G01*
X58894000Y-44951000D01*
G75*
G02*
X59044000Y-45101000I0J-150000D01*
G01*
X59044000Y-45401000D01*
G75*
G02*
X58894000Y-45551000I-150000J0D01*
G01*
X57244000Y-45551000D01*
G75*
G02*
X57094000Y-45401000I0J150000D01*
G01*
G37*
G36*
G01*
X57094000Y-46671000D02*
X57094000Y-46371000D01*
G75*
G02*
X57244000Y-46221000I150000J0D01*
G01*
X58894000Y-46221000D01*
G75*
G02*
X59044000Y-46371000I0J-150000D01*
G01*
X59044000Y-46671000D01*
G75*
G02*
X58894000Y-46821000I-150000J0D01*
G01*
X57244000Y-46821000D01*
G75*
G02*
X57094000Y-46671000I0J150000D01*
G01*
G37*
G36*
G01*
X57094000Y-47941000D02*
X57094000Y-47641000D01*
G75*
G02*
X57244000Y-47491000I150000J0D01*
G01*
X58894000Y-47491000D01*
G75*
G02*
X59044000Y-47641000I0J-150000D01*
G01*
X59044000Y-47941000D01*
G75*
G02*
X58894000Y-48091000I-150000J0D01*
G01*
X57244000Y-48091000D01*
G75*
G02*
X57094000Y-47941000I0J150000D01*
G01*
G37*
G36*
G01*
X57094000Y-49211000D02*
X57094000Y-48911000D01*
G75*
G02*
X57244000Y-48761000I150000J0D01*
G01*
X58894000Y-48761000D01*
G75*
G02*
X59044000Y-48911000I0J-150000D01*
G01*
X59044000Y-49211000D01*
G75*
G02*
X58894000Y-49361000I-150000J0D01*
G01*
X57244000Y-49361000D01*
G75*
G02*
X57094000Y-49211000I0J150000D01*
G01*
G37*
G36*
G01*
X62044000Y-49211000D02*
X62044000Y-48911000D01*
G75*
G02*
X62194000Y-48761000I150000J0D01*
G01*
X63844000Y-48761000D01*
G75*
G02*
X63994000Y-48911000I0J-150000D01*
G01*
X63994000Y-49211000D01*
G75*
G02*
X63844000Y-49361000I-150000J0D01*
G01*
X62194000Y-49361000D01*
G75*
G02*
X62044000Y-49211000I0J150000D01*
G01*
G37*
G36*
G01*
X62044000Y-47941000D02*
X62044000Y-47641000D01*
G75*
G02*
X62194000Y-47491000I150000J0D01*
G01*
X63844000Y-47491000D01*
G75*
G02*
X63994000Y-47641000I0J-150000D01*
G01*
X63994000Y-47941000D01*
G75*
G02*
X63844000Y-48091000I-150000J0D01*
G01*
X62194000Y-48091000D01*
G75*
G02*
X62044000Y-47941000I0J150000D01*
G01*
G37*
G36*
G01*
X62044000Y-46671000D02*
X62044000Y-46371000D01*
G75*
G02*
X62194000Y-46221000I150000J0D01*
G01*
X63844000Y-46221000D01*
G75*
G02*
X63994000Y-46371000I0J-150000D01*
G01*
X63994000Y-46671000D01*
G75*
G02*
X63844000Y-46821000I-150000J0D01*
G01*
X62194000Y-46821000D01*
G75*
G02*
X62044000Y-46671000I0J150000D01*
G01*
G37*
G36*
G01*
X62044000Y-45401000D02*
X62044000Y-45101000D01*
G75*
G02*
X62194000Y-44951000I150000J0D01*
G01*
X63844000Y-44951000D01*
G75*
G02*
X63994000Y-45101000I0J-150000D01*
G01*
X63994000Y-45401000D01*
G75*
G02*
X63844000Y-45551000I-150000J0D01*
G01*
X62194000Y-45551000D01*
G75*
G02*
X62044000Y-45401000I0J150000D01*
G01*
G37*
%TD*%
%TO.C,U3*%
G36*
G01*
X65762000Y-32408000D02*
X65762000Y-32108000D01*
G75*
G02*
X65912000Y-31958000I150000J0D01*
G01*
X67562000Y-31958000D01*
G75*
G02*
X67712000Y-32108000I0J-150000D01*
G01*
X67712000Y-32408000D01*
G75*
G02*
X67562000Y-32558000I-150000J0D01*
G01*
X65912000Y-32558000D01*
G75*
G02*
X65762000Y-32408000I0J150000D01*
G01*
G37*
G36*
G01*
X65762000Y-33678000D02*
X65762000Y-33378000D01*
G75*
G02*
X65912000Y-33228000I150000J0D01*
G01*
X67562000Y-33228000D01*
G75*
G02*
X67712000Y-33378000I0J-150000D01*
G01*
X67712000Y-33678000D01*
G75*
G02*
X67562000Y-33828000I-150000J0D01*
G01*
X65912000Y-33828000D01*
G75*
G02*
X65762000Y-33678000I0J150000D01*
G01*
G37*
G36*
G01*
X65762000Y-34948000D02*
X65762000Y-34648000D01*
G75*
G02*
X65912000Y-34498000I150000J0D01*
G01*
X67562000Y-34498000D01*
G75*
G02*
X67712000Y-34648000I0J-150000D01*
G01*
X67712000Y-34948000D01*
G75*
G02*
X67562000Y-35098000I-150000J0D01*
G01*
X65912000Y-35098000D01*
G75*
G02*
X65762000Y-34948000I0J150000D01*
G01*
G37*
G36*
G01*
X65762000Y-36218000D02*
X65762000Y-35918000D01*
G75*
G02*
X65912000Y-35768000I150000J0D01*
G01*
X67562000Y-35768000D01*
G75*
G02*
X67712000Y-35918000I0J-150000D01*
G01*
X67712000Y-36218000D01*
G75*
G02*
X67562000Y-36368000I-150000J0D01*
G01*
X65912000Y-36368000D01*
G75*
G02*
X65762000Y-36218000I0J150000D01*
G01*
G37*
G36*
G01*
X60812000Y-36218000D02*
X60812000Y-35918000D01*
G75*
G02*
X60962000Y-35768000I150000J0D01*
G01*
X62612000Y-35768000D01*
G75*
G02*
X62762000Y-35918000I0J-150000D01*
G01*
X62762000Y-36218000D01*
G75*
G02*
X62612000Y-36368000I-150000J0D01*
G01*
X60962000Y-36368000D01*
G75*
G02*
X60812000Y-36218000I0J150000D01*
G01*
G37*
G36*
G01*
X60812000Y-34948000D02*
X60812000Y-34648000D01*
G75*
G02*
X60962000Y-34498000I150000J0D01*
G01*
X62612000Y-34498000D01*
G75*
G02*
X62762000Y-34648000I0J-150000D01*
G01*
X62762000Y-34948000D01*
G75*
G02*
X62612000Y-35098000I-150000J0D01*
G01*
X60962000Y-35098000D01*
G75*
G02*
X60812000Y-34948000I0J150000D01*
G01*
G37*
G36*
G01*
X60812000Y-33678000D02*
X60812000Y-33378000D01*
G75*
G02*
X60962000Y-33228000I150000J0D01*
G01*
X62612000Y-33228000D01*
G75*
G02*
X62762000Y-33378000I0J-150000D01*
G01*
X62762000Y-33678000D01*
G75*
G02*
X62612000Y-33828000I-150000J0D01*
G01*
X60962000Y-33828000D01*
G75*
G02*
X60812000Y-33678000I0J150000D01*
G01*
G37*
G36*
G01*
X60812000Y-32408000D02*
X60812000Y-32108000D01*
G75*
G02*
X60962000Y-31958000I150000J0D01*
G01*
X62612000Y-31958000D01*
G75*
G02*
X62762000Y-32108000I0J-150000D01*
G01*
X62762000Y-32408000D01*
G75*
G02*
X62612000Y-32558000I-150000J0D01*
G01*
X60962000Y-32558000D01*
G75*
G02*
X60812000Y-32408000I0J150000D01*
G01*
G37*
%TD*%
M02*
