M48
; DRILL file {KiCad 5.1.10-88a1d61d58~88~ubuntu18.04.1} date Fri Jun 11 13:41:31 2021
; FORMAT={-:-/ absolute / inch / decimal}
; #@! TF.CreationDate,2021-06-11T13:41:31+04:00
; #@! TF.GenerationSoftware,Kicad,Pcbnew,5.1.10-88a1d61d58~88~ubuntu18.04.1
; #@! TF.FileFunction,Plated,1,2,PTH
FMAT,2
INCH
T1C0.0157
T2C0.0236
T3C0.0276
T4C0.0315
T5C0.0354
T6C0.0512
%
G90
G05
T1
X0.875Y-2.02
X1.365Y-1.57
X1.365Y-2.035
X1.47Y-1.79
X2.518Y-1.371
X2.698Y-1.285
T2
X1.025Y-2.025
X1.155Y-1.725
X1.225Y-1.485
X1.295Y-1.84
X1.55Y-0.965
X1.57Y-1.855
X1.93Y-1.015
X2.02Y-1.405
X2.28Y-1.68
X2.39Y-1.93
X2.39Y-1.78
X2.431Y-1.182
X2.432Y-1.48
X2.5Y-0.885
X2.64Y-1.015
X2.68Y-2.15
X2.705Y-1.19
X2.722Y-1.582
X2.885Y-1.285
T3
X0.96Y-1.635
X1.06Y-1.635
X1.151Y-0.924
X1.155Y-2.14
X1.251Y-0.924
X1.255Y-2.14
X1.37Y-1.72
X1.47Y-1.72
X2.09Y-1.28
X2.14Y-2.16
X2.152Y-1.497
X2.19Y-1.28
X2.24Y-2.16
X2.252Y-1.497
X2.519Y-1.522
X2.619Y-1.522
T4
X1.4567Y-0.8858
X1.4567Y-0.9646
X1.716Y-1.53
X2.016Y-1.53
X2.3819Y-0.8858
X2.3819Y-0.9646
T5
X1.765Y-1.812
X1.865Y-1.812
X1.9882Y-1.811
X2.0882Y-1.811
X2.81Y-1.58
X2.91Y-1.58
T6
X0.9Y-1.38
X1.0969Y-1.38
X1.7323Y-0.9252
X1.9291Y-0.9252
X2.126Y-0.9252
X2.6378Y-0.9252
X2.8346Y-0.9252
T0
M30
