%TF.GenerationSoftware,KiCad,Pcbnew,5.1.10-88a1d61d58~88~ubuntu18.04.1*%
%TF.CreationDate,2021-06-11T13:40:42+04:00*%
%TF.ProjectId,DetecteurPresence,44657465-6374-4657-9572-50726573656e,1.0*%
%TF.SameCoordinates,Original*%
%TF.FileFunction,Legend,Top*%
%TF.FilePolarity,Positive*%
%FSLAX46Y46*%
G04 Gerber Fmt 4.6, Leading zero omitted, Abs format (unit mm)*
G04 Created by KiCad (PCBNEW 5.1.10-88a1d61d58~88~ubuntu18.04.1) date 2021-06-11 13:40:42*
%MOMM*%
%LPD*%
G01*
G04 APERTURE LIST*
%ADD10C,0.150000*%
%ADD11C,0.120000*%
%ADD12C,0.100000*%
G04 APERTURE END LIST*
D10*
X70814571Y-27372571D02*
X71314571Y-28872571D01*
X71814571Y-27372571D01*
X72314571Y-28872571D02*
X72314571Y-27872571D01*
X72314571Y-27372571D02*
X72243142Y-27444000D01*
X72314571Y-27515428D01*
X72386000Y-27444000D01*
X72314571Y-27372571D01*
X72314571Y-27515428D01*
X73028857Y-28872571D02*
X73028857Y-27872571D01*
X73028857Y-28158285D02*
X73100285Y-28015428D01*
X73171714Y-27944000D01*
X73314571Y-27872571D01*
X73457428Y-27872571D01*
X65786142Y-27571000D02*
X65643285Y-27499571D01*
X65429000Y-27499571D01*
X65214714Y-27571000D01*
X65071857Y-27713857D01*
X65000428Y-27856714D01*
X64929000Y-28142428D01*
X64929000Y-28356714D01*
X65000428Y-28642428D01*
X65071857Y-28785285D01*
X65214714Y-28928142D01*
X65429000Y-28999571D01*
X65571857Y-28999571D01*
X65786142Y-28928142D01*
X65857571Y-28856714D01*
X65857571Y-28356714D01*
X65571857Y-28356714D01*
X66500428Y-28999571D02*
X66500428Y-27499571D01*
X67357571Y-28999571D01*
X67357571Y-27499571D01*
X68071857Y-28999571D02*
X68071857Y-27499571D01*
X68429000Y-27499571D01*
X68643285Y-27571000D01*
X68786142Y-27713857D01*
X68857571Y-27856714D01*
X68929000Y-28142428D01*
X68929000Y-28356714D01*
X68857571Y-28642428D01*
X68786142Y-28785285D01*
X68643285Y-28928142D01*
X68429000Y-28999571D01*
X68071857Y-28999571D01*
X51975000Y-27753571D02*
X52475000Y-29253571D01*
X52975000Y-27753571D01*
X54332142Y-29110714D02*
X54260714Y-29182142D01*
X54046428Y-29253571D01*
X53903571Y-29253571D01*
X53689285Y-29182142D01*
X53546428Y-29039285D01*
X53475000Y-28896428D01*
X53403571Y-28610714D01*
X53403571Y-28396428D01*
X53475000Y-28110714D01*
X53546428Y-27967857D01*
X53689285Y-27825000D01*
X53903571Y-27753571D01*
X54046428Y-27753571D01*
X54260714Y-27825000D01*
X54332142Y-27896428D01*
X55832142Y-29110714D02*
X55760714Y-29182142D01*
X55546428Y-29253571D01*
X55403571Y-29253571D01*
X55189285Y-29182142D01*
X55046428Y-29039285D01*
X54975000Y-28896428D01*
X54903571Y-28610714D01*
X54903571Y-28396428D01*
X54975000Y-28110714D01*
X55046428Y-27967857D01*
X55189285Y-27825000D01*
X55403571Y-27753571D01*
X55546428Y-27753571D01*
X55760714Y-27825000D01*
X55832142Y-27896428D01*
X47752142Y-27825000D02*
X47609285Y-27753571D01*
X47395000Y-27753571D01*
X47180714Y-27825000D01*
X47037857Y-27967857D01*
X46966428Y-28110714D01*
X46895000Y-28396428D01*
X46895000Y-28610714D01*
X46966428Y-28896428D01*
X47037857Y-29039285D01*
X47180714Y-29182142D01*
X47395000Y-29253571D01*
X47537857Y-29253571D01*
X47752142Y-29182142D01*
X47823571Y-29110714D01*
X47823571Y-28610714D01*
X47537857Y-28610714D01*
X48466428Y-29253571D02*
X48466428Y-27753571D01*
X49323571Y-29253571D01*
X49323571Y-27753571D01*
X50037857Y-29253571D02*
X50037857Y-27753571D01*
X50395000Y-27753571D01*
X50609285Y-27825000D01*
X50752142Y-27967857D01*
X50823571Y-28110714D01*
X50895000Y-28396428D01*
X50895000Y-28610714D01*
X50823571Y-28896428D01*
X50752142Y-29039285D01*
X50609285Y-29182142D01*
X50395000Y-29253571D01*
X50037857Y-29253571D01*
X41957857Y-27753571D02*
X42457857Y-29253571D01*
X42957857Y-27753571D01*
X43457857Y-28467857D02*
X43957857Y-28467857D01*
X44172142Y-29253571D02*
X43457857Y-29253571D01*
X43457857Y-27753571D01*
X44172142Y-27753571D01*
X44815000Y-28467857D02*
X45315000Y-28467857D01*
X45529285Y-29253571D02*
X44815000Y-29253571D01*
X44815000Y-27753571D01*
X45529285Y-27753571D01*
X58618714Y-54169571D02*
X59118714Y-55669571D01*
X59618714Y-54169571D01*
X60761571Y-55669571D02*
X60761571Y-54883857D01*
X60690142Y-54741000D01*
X60547285Y-54669571D01*
X60261571Y-54669571D01*
X60118714Y-54741000D01*
X60761571Y-55598142D02*
X60618714Y-55669571D01*
X60261571Y-55669571D01*
X60118714Y-55598142D01*
X60047285Y-55455285D01*
X60047285Y-55312428D01*
X60118714Y-55169571D01*
X60261571Y-55098142D01*
X60618714Y-55098142D01*
X60761571Y-55026714D01*
X61404428Y-55598142D02*
X61547285Y-55669571D01*
X61833000Y-55669571D01*
X61975857Y-55598142D01*
X62047285Y-55455285D01*
X62047285Y-55383857D01*
X61975857Y-55241000D01*
X61833000Y-55169571D01*
X61618714Y-55169571D01*
X61475857Y-55098142D01*
X61404428Y-54955285D01*
X61404428Y-54883857D01*
X61475857Y-54741000D01*
X61618714Y-54669571D01*
X61833000Y-54669571D01*
X61975857Y-54741000D01*
X62475857Y-54669571D02*
X63047285Y-54669571D01*
X62690142Y-54169571D02*
X62690142Y-55455285D01*
X62761571Y-55598142D01*
X62904428Y-55669571D01*
X63047285Y-55669571D01*
X29678428Y-55820571D02*
X30178428Y-57320571D01*
X30678428Y-55820571D01*
X30964142Y-56320571D02*
X31535571Y-56320571D01*
X31178428Y-57320571D02*
X31178428Y-56034857D01*
X31249857Y-55892000D01*
X31392714Y-55820571D01*
X31535571Y-55820571D01*
X23864285Y-42993571D02*
X24364285Y-44493571D01*
X24864285Y-42993571D01*
X25364285Y-44493571D02*
X25364285Y-43493571D01*
X25364285Y-42993571D02*
X25292857Y-43065000D01*
X25364285Y-43136428D01*
X25435714Y-43065000D01*
X25364285Y-42993571D01*
X25364285Y-43136428D01*
X26721428Y-43493571D02*
X26721428Y-44493571D01*
X26078571Y-43493571D02*
X26078571Y-44279285D01*
X26150000Y-44422142D01*
X26292857Y-44493571D01*
X26507142Y-44493571D01*
X26650000Y-44422142D01*
X26721428Y-44350714D01*
X52923428Y-33849571D02*
X53423428Y-35349571D01*
X53923428Y-33849571D01*
X55066285Y-35349571D02*
X55066285Y-33849571D01*
X55066285Y-35278142D02*
X54923428Y-35349571D01*
X54637714Y-35349571D01*
X54494857Y-35278142D01*
X54423428Y-35206714D01*
X54352000Y-35063857D01*
X54352000Y-34635285D01*
X54423428Y-34492428D01*
X54494857Y-34421000D01*
X54637714Y-34349571D01*
X54923428Y-34349571D01*
X55066285Y-34421000D01*
X53742685Y-39615371D02*
X54242685Y-41115371D01*
X54742685Y-39615371D01*
X55242685Y-41115371D02*
X55242685Y-40115371D01*
X55242685Y-40401085D02*
X55314114Y-40258228D01*
X55385542Y-40186800D01*
X55528400Y-40115371D01*
X55671257Y-40115371D01*
X56742685Y-41043942D02*
X56599828Y-41115371D01*
X56314114Y-41115371D01*
X56171257Y-41043942D01*
X56099828Y-40901085D01*
X56099828Y-40329657D01*
X56171257Y-40186800D01*
X56314114Y-40115371D01*
X56599828Y-40115371D01*
X56742685Y-40186800D01*
X56814114Y-40329657D01*
X56814114Y-40472514D01*
X56099828Y-40615371D01*
X57242685Y-40115371D02*
X57814114Y-40115371D01*
X57456971Y-41115371D02*
X57456971Y-39829657D01*
X57528400Y-39686800D01*
X57671257Y-39615371D01*
X57814114Y-39615371D01*
X63854971Y-40377371D02*
X64354971Y-41877371D01*
X64854971Y-40377371D01*
X65354971Y-41877371D02*
X65354971Y-40877371D01*
X65354971Y-40377371D02*
X65283542Y-40448800D01*
X65354971Y-40520228D01*
X65426400Y-40448800D01*
X65354971Y-40377371D01*
X65354971Y-40520228D01*
X66069257Y-41877371D02*
X66069257Y-40877371D01*
X66069257Y-41163085D02*
X66140685Y-41020228D01*
X66212114Y-40948800D01*
X66354971Y-40877371D01*
X66497828Y-40877371D01*
X29489542Y-25132600D02*
X29346685Y-25061171D01*
X29132400Y-25061171D01*
X28918114Y-25132600D01*
X28775257Y-25275457D01*
X28703828Y-25418314D01*
X28632400Y-25704028D01*
X28632400Y-25918314D01*
X28703828Y-26204028D01*
X28775257Y-26346885D01*
X28918114Y-26489742D01*
X29132400Y-26561171D01*
X29275257Y-26561171D01*
X29489542Y-26489742D01*
X29560971Y-26418314D01*
X29560971Y-25918314D01*
X29275257Y-25918314D01*
X30203828Y-26561171D02*
X30203828Y-25061171D01*
X31060971Y-26561171D01*
X31060971Y-25061171D01*
X31775257Y-26561171D02*
X31775257Y-25061171D01*
X32132400Y-25061171D01*
X32346685Y-25132600D01*
X32489542Y-25275457D01*
X32560971Y-25418314D01*
X32632400Y-25704028D01*
X32632400Y-25918314D01*
X32560971Y-26204028D01*
X32489542Y-26346885D01*
X32346685Y-26489742D01*
X32132400Y-26561171D01*
X31775257Y-26561171D01*
D11*
%TO.C,R7*%
X59917000Y-34025064D02*
X59917000Y-33570936D01*
X58447000Y-34025064D02*
X58447000Y-33570936D01*
%TO.C,TP8*%
X32635400Y-24369600D02*
X28335400Y-24369600D01*
X28335400Y-22569600D02*
X32635400Y-22569600D01*
X28335400Y-22569600D02*
X28335400Y-24369600D01*
X32635400Y-24369600D02*
X32635400Y-22569600D01*
%TO.C,C1*%
X24157000Y-48633748D02*
X24157000Y-49156252D01*
X25627000Y-48633748D02*
X25627000Y-49156252D01*
%TO.C,C2*%
X63120000Y-23500000D02*
G75*
G03*
X63120000Y-23500000I-2620000J0D01*
G01*
X61540000Y-23500000D02*
X63080000Y-23500000D01*
X57920000Y-23500000D02*
X59460000Y-23500000D01*
X61540000Y-23460000D02*
X63080000Y-23460000D01*
X57920000Y-23460000D02*
X59460000Y-23460000D01*
X57921000Y-23420000D02*
X59460000Y-23420000D01*
X61540000Y-23420000D02*
X63079000Y-23420000D01*
X57922000Y-23380000D02*
X59460000Y-23380000D01*
X61540000Y-23380000D02*
X63078000Y-23380000D01*
X57924000Y-23340000D02*
X59460000Y-23340000D01*
X61540000Y-23340000D02*
X63076000Y-23340000D01*
X57927000Y-23300000D02*
X59460000Y-23300000D01*
X61540000Y-23300000D02*
X63073000Y-23300000D01*
X57931000Y-23260000D02*
X59460000Y-23260000D01*
X61540000Y-23260000D02*
X63069000Y-23260000D01*
X57935000Y-23220000D02*
X59460000Y-23220000D01*
X61540000Y-23220000D02*
X63065000Y-23220000D01*
X57939000Y-23180000D02*
X59460000Y-23180000D01*
X61540000Y-23180000D02*
X63061000Y-23180000D01*
X57944000Y-23140000D02*
X59460000Y-23140000D01*
X61540000Y-23140000D02*
X63056000Y-23140000D01*
X57950000Y-23100000D02*
X59460000Y-23100000D01*
X61540000Y-23100000D02*
X63050000Y-23100000D01*
X57957000Y-23060000D02*
X59460000Y-23060000D01*
X61540000Y-23060000D02*
X63043000Y-23060000D01*
X57964000Y-23020000D02*
X59460000Y-23020000D01*
X61540000Y-23020000D02*
X63036000Y-23020000D01*
X57972000Y-22980000D02*
X59460000Y-22980000D01*
X61540000Y-22980000D02*
X63028000Y-22980000D01*
X57980000Y-22940000D02*
X59460000Y-22940000D01*
X61540000Y-22940000D02*
X63020000Y-22940000D01*
X57989000Y-22900000D02*
X59460000Y-22900000D01*
X61540000Y-22900000D02*
X63011000Y-22900000D01*
X57999000Y-22860000D02*
X59460000Y-22860000D01*
X61540000Y-22860000D02*
X63001000Y-22860000D01*
X58009000Y-22820000D02*
X59460000Y-22820000D01*
X61540000Y-22820000D02*
X62991000Y-22820000D01*
X58020000Y-22779000D02*
X59460000Y-22779000D01*
X61540000Y-22779000D02*
X62980000Y-22779000D01*
X58032000Y-22739000D02*
X59460000Y-22739000D01*
X61540000Y-22739000D02*
X62968000Y-22739000D01*
X58045000Y-22699000D02*
X59460000Y-22699000D01*
X61540000Y-22699000D02*
X62955000Y-22699000D01*
X58058000Y-22659000D02*
X59460000Y-22659000D01*
X61540000Y-22659000D02*
X62942000Y-22659000D01*
X58072000Y-22619000D02*
X59460000Y-22619000D01*
X61540000Y-22619000D02*
X62928000Y-22619000D01*
X58086000Y-22579000D02*
X59460000Y-22579000D01*
X61540000Y-22579000D02*
X62914000Y-22579000D01*
X58102000Y-22539000D02*
X59460000Y-22539000D01*
X61540000Y-22539000D02*
X62898000Y-22539000D01*
X58118000Y-22499000D02*
X59460000Y-22499000D01*
X61540000Y-22499000D02*
X62882000Y-22499000D01*
X58135000Y-22459000D02*
X59460000Y-22459000D01*
X61540000Y-22459000D02*
X62865000Y-22459000D01*
X58152000Y-22419000D02*
X59460000Y-22419000D01*
X61540000Y-22419000D02*
X62848000Y-22419000D01*
X58171000Y-22379000D02*
X59460000Y-22379000D01*
X61540000Y-22379000D02*
X62829000Y-22379000D01*
X58190000Y-22339000D02*
X59460000Y-22339000D01*
X61540000Y-22339000D02*
X62810000Y-22339000D01*
X58210000Y-22299000D02*
X59460000Y-22299000D01*
X61540000Y-22299000D02*
X62790000Y-22299000D01*
X58232000Y-22259000D02*
X59460000Y-22259000D01*
X61540000Y-22259000D02*
X62768000Y-22259000D01*
X58253000Y-22219000D02*
X59460000Y-22219000D01*
X61540000Y-22219000D02*
X62747000Y-22219000D01*
X58276000Y-22179000D02*
X59460000Y-22179000D01*
X61540000Y-22179000D02*
X62724000Y-22179000D01*
X58300000Y-22139000D02*
X59460000Y-22139000D01*
X61540000Y-22139000D02*
X62700000Y-22139000D01*
X58325000Y-22099000D02*
X59460000Y-22099000D01*
X61540000Y-22099000D02*
X62675000Y-22099000D01*
X58351000Y-22059000D02*
X59460000Y-22059000D01*
X61540000Y-22059000D02*
X62649000Y-22059000D01*
X58378000Y-22019000D02*
X59460000Y-22019000D01*
X61540000Y-22019000D02*
X62622000Y-22019000D01*
X58405000Y-21979000D02*
X59460000Y-21979000D01*
X61540000Y-21979000D02*
X62595000Y-21979000D01*
X58435000Y-21939000D02*
X59460000Y-21939000D01*
X61540000Y-21939000D02*
X62565000Y-21939000D01*
X58465000Y-21899000D02*
X59460000Y-21899000D01*
X61540000Y-21899000D02*
X62535000Y-21899000D01*
X58496000Y-21859000D02*
X59460000Y-21859000D01*
X61540000Y-21859000D02*
X62504000Y-21859000D01*
X58529000Y-21819000D02*
X59460000Y-21819000D01*
X61540000Y-21819000D02*
X62471000Y-21819000D01*
X58563000Y-21779000D02*
X59460000Y-21779000D01*
X61540000Y-21779000D02*
X62437000Y-21779000D01*
X58599000Y-21739000D02*
X59460000Y-21739000D01*
X61540000Y-21739000D02*
X62401000Y-21739000D01*
X58636000Y-21699000D02*
X59460000Y-21699000D01*
X61540000Y-21699000D02*
X62364000Y-21699000D01*
X58674000Y-21659000D02*
X59460000Y-21659000D01*
X61540000Y-21659000D02*
X62326000Y-21659000D01*
X58715000Y-21619000D02*
X59460000Y-21619000D01*
X61540000Y-21619000D02*
X62285000Y-21619000D01*
X58757000Y-21579000D02*
X59460000Y-21579000D01*
X61540000Y-21579000D02*
X62243000Y-21579000D01*
X58801000Y-21539000D02*
X59460000Y-21539000D01*
X61540000Y-21539000D02*
X62199000Y-21539000D01*
X58847000Y-21499000D02*
X59460000Y-21499000D01*
X61540000Y-21499000D02*
X62153000Y-21499000D01*
X58895000Y-21459000D02*
X62105000Y-21459000D01*
X58946000Y-21419000D02*
X62054000Y-21419000D01*
X59000000Y-21379000D02*
X62000000Y-21379000D01*
X59057000Y-21339000D02*
X61943000Y-21339000D01*
X59117000Y-21299000D02*
X61883000Y-21299000D01*
X59181000Y-21259000D02*
X61819000Y-21259000D01*
X59249000Y-21219000D02*
X61751000Y-21219000D01*
X59322000Y-21179000D02*
X61678000Y-21179000D01*
X59402000Y-21139000D02*
X61598000Y-21139000D01*
X59489000Y-21099000D02*
X61511000Y-21099000D01*
X59585000Y-21059000D02*
X61415000Y-21059000D01*
X59695000Y-21019000D02*
X61305000Y-21019000D01*
X59823000Y-20979000D02*
X61177000Y-20979000D01*
X59982000Y-20939000D02*
X61018000Y-20939000D01*
X60216000Y-20899000D02*
X60784000Y-20899000D01*
X59025000Y-26304775D02*
X59025000Y-25804775D01*
X58775000Y-26054775D02*
X59275000Y-26054775D01*
%TO.C,C3*%
X35275000Y-26054775D02*
X35775000Y-26054775D01*
X35525000Y-26304775D02*
X35525000Y-25804775D01*
X36716000Y-20899000D02*
X37284000Y-20899000D01*
X36482000Y-20939000D02*
X37518000Y-20939000D01*
X36323000Y-20979000D02*
X37677000Y-20979000D01*
X36195000Y-21019000D02*
X37805000Y-21019000D01*
X36085000Y-21059000D02*
X37915000Y-21059000D01*
X35989000Y-21099000D02*
X38011000Y-21099000D01*
X35902000Y-21139000D02*
X38098000Y-21139000D01*
X35822000Y-21179000D02*
X38178000Y-21179000D01*
X35749000Y-21219000D02*
X38251000Y-21219000D01*
X35681000Y-21259000D02*
X38319000Y-21259000D01*
X35617000Y-21299000D02*
X38383000Y-21299000D01*
X35557000Y-21339000D02*
X38443000Y-21339000D01*
X35500000Y-21379000D02*
X38500000Y-21379000D01*
X35446000Y-21419000D02*
X38554000Y-21419000D01*
X35395000Y-21459000D02*
X38605000Y-21459000D01*
X38040000Y-21499000D02*
X38653000Y-21499000D01*
X35347000Y-21499000D02*
X35960000Y-21499000D01*
X38040000Y-21539000D02*
X38699000Y-21539000D01*
X35301000Y-21539000D02*
X35960000Y-21539000D01*
X38040000Y-21579000D02*
X38743000Y-21579000D01*
X35257000Y-21579000D02*
X35960000Y-21579000D01*
X38040000Y-21619000D02*
X38785000Y-21619000D01*
X35215000Y-21619000D02*
X35960000Y-21619000D01*
X38040000Y-21659000D02*
X38826000Y-21659000D01*
X35174000Y-21659000D02*
X35960000Y-21659000D01*
X38040000Y-21699000D02*
X38864000Y-21699000D01*
X35136000Y-21699000D02*
X35960000Y-21699000D01*
X38040000Y-21739000D02*
X38901000Y-21739000D01*
X35099000Y-21739000D02*
X35960000Y-21739000D01*
X38040000Y-21779000D02*
X38937000Y-21779000D01*
X35063000Y-21779000D02*
X35960000Y-21779000D01*
X38040000Y-21819000D02*
X38971000Y-21819000D01*
X35029000Y-21819000D02*
X35960000Y-21819000D01*
X38040000Y-21859000D02*
X39004000Y-21859000D01*
X34996000Y-21859000D02*
X35960000Y-21859000D01*
X38040000Y-21899000D02*
X39035000Y-21899000D01*
X34965000Y-21899000D02*
X35960000Y-21899000D01*
X38040000Y-21939000D02*
X39065000Y-21939000D01*
X34935000Y-21939000D02*
X35960000Y-21939000D01*
X38040000Y-21979000D02*
X39095000Y-21979000D01*
X34905000Y-21979000D02*
X35960000Y-21979000D01*
X38040000Y-22019000D02*
X39122000Y-22019000D01*
X34878000Y-22019000D02*
X35960000Y-22019000D01*
X38040000Y-22059000D02*
X39149000Y-22059000D01*
X34851000Y-22059000D02*
X35960000Y-22059000D01*
X38040000Y-22099000D02*
X39175000Y-22099000D01*
X34825000Y-22099000D02*
X35960000Y-22099000D01*
X38040000Y-22139000D02*
X39200000Y-22139000D01*
X34800000Y-22139000D02*
X35960000Y-22139000D01*
X38040000Y-22179000D02*
X39224000Y-22179000D01*
X34776000Y-22179000D02*
X35960000Y-22179000D01*
X38040000Y-22219000D02*
X39247000Y-22219000D01*
X34753000Y-22219000D02*
X35960000Y-22219000D01*
X38040000Y-22259000D02*
X39268000Y-22259000D01*
X34732000Y-22259000D02*
X35960000Y-22259000D01*
X38040000Y-22299000D02*
X39290000Y-22299000D01*
X34710000Y-22299000D02*
X35960000Y-22299000D01*
X38040000Y-22339000D02*
X39310000Y-22339000D01*
X34690000Y-22339000D02*
X35960000Y-22339000D01*
X38040000Y-22379000D02*
X39329000Y-22379000D01*
X34671000Y-22379000D02*
X35960000Y-22379000D01*
X38040000Y-22419000D02*
X39348000Y-22419000D01*
X34652000Y-22419000D02*
X35960000Y-22419000D01*
X38040000Y-22459000D02*
X39365000Y-22459000D01*
X34635000Y-22459000D02*
X35960000Y-22459000D01*
X38040000Y-22499000D02*
X39382000Y-22499000D01*
X34618000Y-22499000D02*
X35960000Y-22499000D01*
X38040000Y-22539000D02*
X39398000Y-22539000D01*
X34602000Y-22539000D02*
X35960000Y-22539000D01*
X38040000Y-22579000D02*
X39414000Y-22579000D01*
X34586000Y-22579000D02*
X35960000Y-22579000D01*
X38040000Y-22619000D02*
X39428000Y-22619000D01*
X34572000Y-22619000D02*
X35960000Y-22619000D01*
X38040000Y-22659000D02*
X39442000Y-22659000D01*
X34558000Y-22659000D02*
X35960000Y-22659000D01*
X38040000Y-22699000D02*
X39455000Y-22699000D01*
X34545000Y-22699000D02*
X35960000Y-22699000D01*
X38040000Y-22739000D02*
X39468000Y-22739000D01*
X34532000Y-22739000D02*
X35960000Y-22739000D01*
X38040000Y-22779000D02*
X39480000Y-22779000D01*
X34520000Y-22779000D02*
X35960000Y-22779000D01*
X38040000Y-22820000D02*
X39491000Y-22820000D01*
X34509000Y-22820000D02*
X35960000Y-22820000D01*
X38040000Y-22860000D02*
X39501000Y-22860000D01*
X34499000Y-22860000D02*
X35960000Y-22860000D01*
X38040000Y-22900000D02*
X39511000Y-22900000D01*
X34489000Y-22900000D02*
X35960000Y-22900000D01*
X38040000Y-22940000D02*
X39520000Y-22940000D01*
X34480000Y-22940000D02*
X35960000Y-22940000D01*
X38040000Y-22980000D02*
X39528000Y-22980000D01*
X34472000Y-22980000D02*
X35960000Y-22980000D01*
X38040000Y-23020000D02*
X39536000Y-23020000D01*
X34464000Y-23020000D02*
X35960000Y-23020000D01*
X38040000Y-23060000D02*
X39543000Y-23060000D01*
X34457000Y-23060000D02*
X35960000Y-23060000D01*
X38040000Y-23100000D02*
X39550000Y-23100000D01*
X34450000Y-23100000D02*
X35960000Y-23100000D01*
X38040000Y-23140000D02*
X39556000Y-23140000D01*
X34444000Y-23140000D02*
X35960000Y-23140000D01*
X38040000Y-23180000D02*
X39561000Y-23180000D01*
X34439000Y-23180000D02*
X35960000Y-23180000D01*
X38040000Y-23220000D02*
X39565000Y-23220000D01*
X34435000Y-23220000D02*
X35960000Y-23220000D01*
X38040000Y-23260000D02*
X39569000Y-23260000D01*
X34431000Y-23260000D02*
X35960000Y-23260000D01*
X38040000Y-23300000D02*
X39573000Y-23300000D01*
X34427000Y-23300000D02*
X35960000Y-23300000D01*
X38040000Y-23340000D02*
X39576000Y-23340000D01*
X34424000Y-23340000D02*
X35960000Y-23340000D01*
X38040000Y-23380000D02*
X39578000Y-23380000D01*
X34422000Y-23380000D02*
X35960000Y-23380000D01*
X38040000Y-23420000D02*
X39579000Y-23420000D01*
X34421000Y-23420000D02*
X35960000Y-23420000D01*
X34420000Y-23460000D02*
X35960000Y-23460000D01*
X38040000Y-23460000D02*
X39580000Y-23460000D01*
X34420000Y-23500000D02*
X35960000Y-23500000D01*
X38040000Y-23500000D02*
X39580000Y-23500000D01*
X39620000Y-23500000D02*
G75*
G03*
X39620000Y-23500000I-2620000J0D01*
G01*
%TO.C,C4*%
X30614252Y-46201000D02*
X30091748Y-46201000D01*
X30614252Y-44731000D02*
X30091748Y-44731000D01*
%TO.C,C5*%
X23141000Y-53354248D02*
X23141000Y-53876752D01*
X24611000Y-53354248D02*
X24611000Y-53876752D01*
%TO.C,C6*%
X33767752Y-32993000D02*
X33245248Y-32993000D01*
X33767752Y-31523000D02*
X33245248Y-31523000D01*
%TO.C,C7*%
X33789252Y-34317000D02*
X33266748Y-34317000D01*
X33789252Y-35787000D02*
X33266748Y-35787000D01*
%TO.C,C8*%
X66794748Y-52097000D02*
X67317252Y-52097000D01*
X66794748Y-53567000D02*
X67317252Y-53567000D01*
%TO.C,C9*%
X46251800Y-34431248D02*
X46251800Y-34953752D01*
X44781800Y-34431248D02*
X44781800Y-34953752D01*
%TO.C,C10*%
X60767752Y-43407000D02*
X60245248Y-43407000D01*
X60767752Y-41937000D02*
X60245248Y-41937000D01*
%TO.C,C11*%
X63979248Y-30707000D02*
X64501752Y-30707000D01*
X63979248Y-29237000D02*
X64501752Y-29237000D01*
%TO.C,C12*%
X66794748Y-50773000D02*
X67317252Y-50773000D01*
X66794748Y-49303000D02*
X67317252Y-49303000D01*
%TO.C,D1*%
X43111000Y-46025262D02*
G75*
G02*
X48661000Y-44479970I2990000J462D01*
G01*
X43111000Y-46024338D02*
G75*
G03*
X48661000Y-47569630I2990000J-462D01*
G01*
X48601000Y-46024800D02*
G75*
G03*
X48601000Y-46024800I-2500000J0D01*
G01*
X48661000Y-47569800D02*
X48661000Y-44479800D01*
%TO.C,D2*%
X45276400Y-37742000D02*
X45276400Y-39982000D01*
X45276400Y-39982000D02*
X49516400Y-39982000D01*
X49516400Y-39982000D02*
X49516400Y-37742000D01*
X49516400Y-37742000D02*
X45276400Y-37742000D01*
X44626400Y-38862000D02*
X45276400Y-38862000D01*
X50166400Y-38862000D02*
X49516400Y-38862000D01*
X45996400Y-37742000D02*
X45996400Y-39982000D01*
X46116400Y-37742000D02*
X46116400Y-39982000D01*
X45876400Y-37742000D02*
X45876400Y-39982000D01*
%TO.C,D3*%
X75144000Y-40132000D02*
G75*
G03*
X75144000Y-40132000I-2500000J0D01*
G01*
X70084000Y-38587000D02*
X70084000Y-41677000D01*
X75634000Y-40132462D02*
G75*
G03*
X70084000Y-38587170I-2990000J462D01*
G01*
X75634000Y-40131538D02*
G75*
G02*
X70084000Y-41676830I-2990000J-462D01*
G01*
%TO.C,D4*%
X49210000Y-44455000D02*
X49210000Y-47545000D01*
X54270000Y-46000000D02*
G75*
G03*
X54270000Y-46000000I-2500000J0D01*
G01*
X54760000Y-46000462D02*
G75*
G03*
X49210000Y-44455170I-2990000J462D01*
G01*
X54760000Y-45999538D02*
G75*
G02*
X49210000Y-47544830I-2990000J-462D01*
G01*
%TO.C,J1*%
X52750000Y-24250000D02*
X55000000Y-22500000D01*
X47750000Y-24250000D02*
X50000000Y-22500000D01*
X42750000Y-24250000D02*
X45000000Y-22500000D01*
X45500000Y-23500000D02*
G75*
G03*
X45500000Y-23500000I-1500000J0D01*
G01*
X50500000Y-23500000D02*
G75*
G03*
X50500000Y-23500000I-1500000J0D01*
G01*
X55500000Y-23500000D02*
G75*
G03*
X55500000Y-23500000I-1500000J0D01*
G01*
D12*
G36*
X43750000Y-21000000D02*
G01*
X44250000Y-21000000D01*
X44000000Y-21500000D01*
X43750000Y-21000000D01*
G37*
X43750000Y-21000000D02*
X44250000Y-21000000D01*
X44000000Y-21500000D01*
X43750000Y-21000000D01*
G36*
X48750000Y-21000000D02*
G01*
X49250000Y-21000000D01*
X49000000Y-21500000D01*
X48750000Y-21000000D01*
G37*
X48750000Y-21000000D02*
X49250000Y-21000000D01*
X49000000Y-21500000D01*
X48750000Y-21000000D01*
G36*
X53750000Y-21000000D02*
G01*
X54250000Y-21000000D01*
X54000000Y-21500000D01*
X53750000Y-21000000D01*
G37*
X53750000Y-21000000D02*
X54250000Y-21000000D01*
X54000000Y-21500000D01*
X53750000Y-21000000D01*
D11*
X44000000Y-20250000D02*
X44000000Y-21500000D01*
X49000000Y-20250000D02*
X49000000Y-21500000D01*
X54000000Y-20250000D02*
X54000000Y-21500000D01*
X56500000Y-20500000D02*
X41500000Y-20500000D01*
X56500000Y-26000000D02*
X41500000Y-26000000D01*
X41500000Y-20000000D02*
X56500000Y-20000000D01*
X41500000Y-27500000D02*
X41500000Y-20000000D01*
X56500000Y-27500000D02*
X41500000Y-27500000D01*
X56500000Y-20000000D02*
X56500000Y-27500000D01*
%TO.C,J2*%
X74500000Y-20000000D02*
X74500000Y-27500000D01*
X74500000Y-27500000D02*
X64500000Y-27500000D01*
X64500000Y-27500000D02*
X64500000Y-20000000D01*
X64500000Y-20000000D02*
X74500000Y-20000000D01*
X74500000Y-26000000D02*
X64500000Y-26000000D01*
X74500000Y-20500000D02*
X64500000Y-20500000D01*
X72000000Y-20250000D02*
X72000000Y-21500000D01*
X67000000Y-20250000D02*
X67000000Y-21500000D01*
D12*
G36*
X71750000Y-21000000D02*
G01*
X72250000Y-21000000D01*
X72000000Y-21500000D01*
X71750000Y-21000000D01*
G37*
X71750000Y-21000000D02*
X72250000Y-21000000D01*
X72000000Y-21500000D01*
X71750000Y-21000000D01*
G36*
X66750000Y-21000000D02*
G01*
X67250000Y-21000000D01*
X67000000Y-21500000D01*
X66750000Y-21000000D01*
G37*
X66750000Y-21000000D02*
X67250000Y-21000000D01*
X67000000Y-21500000D01*
X66750000Y-21000000D01*
D11*
X73500000Y-23500000D02*
G75*
G03*
X73500000Y-23500000I-1500000J0D01*
G01*
X68500000Y-23500000D02*
G75*
G03*
X68500000Y-23500000I-1500000J0D01*
G01*
X65750000Y-24250000D02*
X68000000Y-22500000D01*
X70750000Y-24250000D02*
X73000000Y-22500000D01*
%TO.C,L1*%
X28901652Y-33492000D02*
G75*
G03*
X21818348Y-33492000I-3541652J-1560000D01*
G01*
X28901652Y-36612000D02*
G75*
G02*
X21818348Y-36612000I-3541652J1560000D01*
G01*
%TO.C,R1*%
X22960000Y-48667936D02*
X22960000Y-49122064D01*
X21490000Y-48667936D02*
X21490000Y-49122064D01*
%TO.C,R2*%
X33882064Y-36984000D02*
X33427936Y-36984000D01*
X33882064Y-38454000D02*
X33427936Y-38454000D01*
%TO.C,R3*%
X39143000Y-49614064D02*
X39143000Y-49159936D01*
X40613000Y-49614064D02*
X40613000Y-49159936D01*
%TO.C,R4*%
X37692000Y-49175936D02*
X37692000Y-49630064D01*
X36222000Y-49175936D02*
X36222000Y-49630064D01*
%TO.C,R5*%
X50569800Y-34898064D02*
X50569800Y-34443936D01*
X49099800Y-34898064D02*
X49099800Y-34443936D01*
%TO.C,R6*%
X71388464Y-33323200D02*
X70934336Y-33323200D01*
X71388464Y-31853200D02*
X70934336Y-31853200D01*
%TO.C,R8*%
X70934336Y-29465600D02*
X71388464Y-29465600D01*
X70934336Y-30935600D02*
X71388464Y-30935600D01*
%TO.C,R9*%
X70908936Y-35787000D02*
X71363064Y-35787000D01*
X70908936Y-34317000D02*
X71363064Y-34317000D01*
%TO.C,R10*%
X66812936Y-44223000D02*
X67267064Y-44223000D01*
X66812936Y-45693000D02*
X67267064Y-45693000D01*
%TO.C,R12*%
X67299064Y-46763000D02*
X66844936Y-46763000D01*
X67299064Y-48233000D02*
X66844936Y-48233000D01*
%TO.C,R13*%
X55811064Y-51589000D02*
X55356936Y-51589000D01*
X55811064Y-53059000D02*
X55356936Y-53059000D01*
%TO.C,RV1*%
X70364000Y-46028000D02*
X70364000Y-46428000D01*
X71464000Y-44628000D02*
X74364000Y-44628000D01*
X74364000Y-44628000D02*
X74364000Y-45228000D01*
X71464000Y-47828000D02*
X74364000Y-47828000D01*
X74364000Y-47828000D02*
X74364000Y-47228000D01*
X70564000Y-44428000D02*
X69864000Y-44428000D01*
X69864000Y-44428000D02*
X69864000Y-45128000D01*
%TO.C,TP1*%
X27784000Y-42429000D02*
X23484000Y-42429000D01*
X23484000Y-40629000D02*
X27784000Y-40629000D01*
X23484000Y-40629000D02*
X23484000Y-42429000D01*
X27784000Y-42429000D02*
X27784000Y-40629000D01*
%TO.C,TP2*%
X32737000Y-55256000D02*
X32737000Y-53456000D01*
X28437000Y-53456000D02*
X28437000Y-55256000D01*
X28437000Y-53456000D02*
X32737000Y-53456000D01*
X32737000Y-55256000D02*
X28437000Y-55256000D01*
%TO.C,TP3*%
X33938000Y-42788000D02*
X33938000Y-44588000D01*
X38238000Y-44588000D02*
X38238000Y-42788000D01*
X38238000Y-44588000D02*
X33938000Y-44588000D01*
X33938000Y-42788000D02*
X38238000Y-42788000D01*
%TO.C,TP4*%
X56486000Y-33412000D02*
X52186000Y-33412000D01*
X52186000Y-31612000D02*
X56486000Y-31612000D01*
X52186000Y-31612000D02*
X52186000Y-33412000D01*
X56486000Y-33412000D02*
X56486000Y-31612000D01*
%TO.C,TP5*%
X67382600Y-39558800D02*
X63082600Y-39558800D01*
X63082600Y-37758800D02*
X67382600Y-37758800D01*
X63082600Y-37758800D02*
X63082600Y-39558800D01*
X67382600Y-39558800D02*
X67382600Y-37758800D01*
%TO.C,TP6*%
X57756000Y-55764000D02*
X57756000Y-53964000D01*
X53456000Y-53964000D02*
X53456000Y-55764000D01*
X53456000Y-53964000D02*
X57756000Y-53964000D01*
X57756000Y-55764000D02*
X53456000Y-55764000D01*
%TO.C,TP7*%
X53800800Y-37123800D02*
X58100800Y-37123800D01*
X58100800Y-38923800D02*
X53800800Y-38923800D01*
X58100800Y-38923800D02*
X58100800Y-37123800D01*
X53800800Y-37123800D02*
X53800800Y-38923800D01*
%TO.C,U1*%
X30353000Y-52344000D02*
X32303000Y-52344000D01*
X30353000Y-52344000D02*
X28403000Y-52344000D01*
X30353000Y-47224000D02*
X32303000Y-47224000D01*
X30353000Y-47224000D02*
X26903000Y-47224000D01*
%TO.C,U2*%
X60544000Y-49716000D02*
X62494000Y-49716000D01*
X60544000Y-49716000D02*
X58594000Y-49716000D01*
X60544000Y-44596000D02*
X62494000Y-44596000D01*
X60544000Y-44596000D02*
X57094000Y-44596000D01*
%TO.C,U3*%
X64262000Y-31603000D02*
X60812000Y-31603000D01*
X64262000Y-31603000D02*
X66212000Y-31603000D01*
X64262000Y-36723000D02*
X62312000Y-36723000D01*
X64262000Y-36723000D02*
X66212000Y-36723000D01*
%TO.C,R7*%
D10*
X59066133Y-31396180D02*
X58732800Y-30919990D01*
X58494704Y-31396180D02*
X58494704Y-30396180D01*
X58875657Y-30396180D01*
X58970895Y-30443800D01*
X59018514Y-30491419D01*
X59066133Y-30586657D01*
X59066133Y-30729514D01*
X59018514Y-30824752D01*
X58970895Y-30872371D01*
X58875657Y-30919990D01*
X58494704Y-30919990D01*
X59399466Y-30396180D02*
X60066133Y-30396180D01*
X59637561Y-31396180D01*
%TO.C,TP8*%
X29065695Y-20889980D02*
X29637123Y-20889980D01*
X29351409Y-21889980D02*
X29351409Y-20889980D01*
X29970457Y-21889980D02*
X29970457Y-20889980D01*
X30351409Y-20889980D01*
X30446647Y-20937600D01*
X30494266Y-20985219D01*
X30541885Y-21080457D01*
X30541885Y-21223314D01*
X30494266Y-21318552D01*
X30446647Y-21366171D01*
X30351409Y-21413790D01*
X29970457Y-21413790D01*
X31113314Y-21318552D02*
X31018076Y-21270933D01*
X30970457Y-21223314D01*
X30922838Y-21128076D01*
X30922838Y-21080457D01*
X30970457Y-20985219D01*
X31018076Y-20937600D01*
X31113314Y-20889980D01*
X31303790Y-20889980D01*
X31399028Y-20937600D01*
X31446647Y-20985219D01*
X31494266Y-21080457D01*
X31494266Y-21128076D01*
X31446647Y-21223314D01*
X31399028Y-21270933D01*
X31303790Y-21318552D01*
X31113314Y-21318552D01*
X31018076Y-21366171D01*
X30970457Y-21413790D01*
X30922838Y-21509028D01*
X30922838Y-21699504D01*
X30970457Y-21794742D01*
X31018076Y-21842361D01*
X31113314Y-21889980D01*
X31303790Y-21889980D01*
X31399028Y-21842361D01*
X31446647Y-21794742D01*
X31494266Y-21699504D01*
X31494266Y-21509028D01*
X31446647Y-21413790D01*
X31399028Y-21366171D01*
X31303790Y-21318552D01*
%TO.C,C1*%
X24725333Y-46585142D02*
X24677714Y-46632761D01*
X24534857Y-46680380D01*
X24439619Y-46680380D01*
X24296761Y-46632761D01*
X24201523Y-46537523D01*
X24153904Y-46442285D01*
X24106285Y-46251809D01*
X24106285Y-46108952D01*
X24153904Y-45918476D01*
X24201523Y-45823238D01*
X24296761Y-45728000D01*
X24439619Y-45680380D01*
X24534857Y-45680380D01*
X24677714Y-45728000D01*
X24725333Y-45775619D01*
X25677714Y-46680380D02*
X25106285Y-46680380D01*
X25392000Y-46680380D02*
X25392000Y-45680380D01*
X25296761Y-45823238D01*
X25201523Y-45918476D01*
X25106285Y-45966095D01*
%TO.C,C2*%
X57107142Y-23666666D02*
X57154761Y-23714285D01*
X57202380Y-23857142D01*
X57202380Y-23952380D01*
X57154761Y-24095238D01*
X57059523Y-24190476D01*
X56964285Y-24238095D01*
X56773809Y-24285714D01*
X56630952Y-24285714D01*
X56440476Y-24238095D01*
X56345238Y-24190476D01*
X56250000Y-24095238D01*
X56202380Y-23952380D01*
X56202380Y-23857142D01*
X56250000Y-23714285D01*
X56297619Y-23666666D01*
X56297619Y-23285714D02*
X56250000Y-23238095D01*
X56202380Y-23142857D01*
X56202380Y-22904761D01*
X56250000Y-22809523D01*
X56297619Y-22761904D01*
X56392857Y-22714285D01*
X56488095Y-22714285D01*
X56630952Y-22761904D01*
X57202380Y-23333333D01*
X57202380Y-22714285D01*
%TO.C,C3*%
X36790333Y-27408142D02*
X36742714Y-27455761D01*
X36599857Y-27503380D01*
X36504619Y-27503380D01*
X36361761Y-27455761D01*
X36266523Y-27360523D01*
X36218904Y-27265285D01*
X36171285Y-27074809D01*
X36171285Y-26931952D01*
X36218904Y-26741476D01*
X36266523Y-26646238D01*
X36361761Y-26551000D01*
X36504619Y-26503380D01*
X36599857Y-26503380D01*
X36742714Y-26551000D01*
X36790333Y-26598619D01*
X37123666Y-26503380D02*
X37742714Y-26503380D01*
X37409380Y-26884333D01*
X37552238Y-26884333D01*
X37647476Y-26931952D01*
X37695095Y-26979571D01*
X37742714Y-27074809D01*
X37742714Y-27312904D01*
X37695095Y-27408142D01*
X37647476Y-27455761D01*
X37552238Y-27503380D01*
X37266523Y-27503380D01*
X37171285Y-27455761D01*
X37123666Y-27408142D01*
%TO.C,C4*%
X30059333Y-44045142D02*
X30011714Y-44092761D01*
X29868857Y-44140380D01*
X29773619Y-44140380D01*
X29630761Y-44092761D01*
X29535523Y-43997523D01*
X29487904Y-43902285D01*
X29440285Y-43711809D01*
X29440285Y-43568952D01*
X29487904Y-43378476D01*
X29535523Y-43283238D01*
X29630761Y-43188000D01*
X29773619Y-43140380D01*
X29868857Y-43140380D01*
X30011714Y-43188000D01*
X30059333Y-43235619D01*
X30916476Y-43473714D02*
X30916476Y-44140380D01*
X30678380Y-43092761D02*
X30440285Y-43807047D01*
X31059333Y-43807047D01*
%TO.C,C5*%
X21550333Y-53951142D02*
X21502714Y-53998761D01*
X21359857Y-54046380D01*
X21264619Y-54046380D01*
X21121761Y-53998761D01*
X21026523Y-53903523D01*
X20978904Y-53808285D01*
X20931285Y-53617809D01*
X20931285Y-53474952D01*
X20978904Y-53284476D01*
X21026523Y-53189238D01*
X21121761Y-53094000D01*
X21264619Y-53046380D01*
X21359857Y-53046380D01*
X21502714Y-53094000D01*
X21550333Y-53141619D01*
X22455095Y-53046380D02*
X21978904Y-53046380D01*
X21931285Y-53522571D01*
X21978904Y-53474952D01*
X22074142Y-53427333D01*
X22312238Y-53427333D01*
X22407476Y-53474952D01*
X22455095Y-53522571D01*
X22502714Y-53617809D01*
X22502714Y-53855904D01*
X22455095Y-53951142D01*
X22407476Y-53998761D01*
X22312238Y-54046380D01*
X22074142Y-54046380D01*
X21978904Y-53998761D01*
X21931285Y-53951142D01*
%TO.C,C6*%
X36409333Y-32742142D02*
X36361714Y-32789761D01*
X36218857Y-32837380D01*
X36123619Y-32837380D01*
X35980761Y-32789761D01*
X35885523Y-32694523D01*
X35837904Y-32599285D01*
X35790285Y-32408809D01*
X35790285Y-32265952D01*
X35837904Y-32075476D01*
X35885523Y-31980238D01*
X35980761Y-31885000D01*
X36123619Y-31837380D01*
X36218857Y-31837380D01*
X36361714Y-31885000D01*
X36409333Y-31932619D01*
X37266476Y-31837380D02*
X37076000Y-31837380D01*
X36980761Y-31885000D01*
X36933142Y-31932619D01*
X36837904Y-32075476D01*
X36790285Y-32265952D01*
X36790285Y-32646904D01*
X36837904Y-32742142D01*
X36885523Y-32789761D01*
X36980761Y-32837380D01*
X37171238Y-32837380D01*
X37266476Y-32789761D01*
X37314095Y-32742142D01*
X37361714Y-32646904D01*
X37361714Y-32408809D01*
X37314095Y-32313571D01*
X37266476Y-32265952D01*
X37171238Y-32218333D01*
X36980761Y-32218333D01*
X36885523Y-32265952D01*
X36837904Y-32313571D01*
X36790285Y-32408809D01*
%TO.C,C7*%
X36409333Y-35409142D02*
X36361714Y-35456761D01*
X36218857Y-35504380D01*
X36123619Y-35504380D01*
X35980761Y-35456761D01*
X35885523Y-35361523D01*
X35837904Y-35266285D01*
X35790285Y-35075809D01*
X35790285Y-34932952D01*
X35837904Y-34742476D01*
X35885523Y-34647238D01*
X35980761Y-34552000D01*
X36123619Y-34504380D01*
X36218857Y-34504380D01*
X36361714Y-34552000D01*
X36409333Y-34599619D01*
X36742666Y-34504380D02*
X37409333Y-34504380D01*
X36980761Y-35504380D01*
%TO.C,C8*%
X69937333Y-53189142D02*
X69889714Y-53236761D01*
X69746857Y-53284380D01*
X69651619Y-53284380D01*
X69508761Y-53236761D01*
X69413523Y-53141523D01*
X69365904Y-53046285D01*
X69318285Y-52855809D01*
X69318285Y-52712952D01*
X69365904Y-52522476D01*
X69413523Y-52427238D01*
X69508761Y-52332000D01*
X69651619Y-52284380D01*
X69746857Y-52284380D01*
X69889714Y-52332000D01*
X69937333Y-52379619D01*
X70508761Y-52712952D02*
X70413523Y-52665333D01*
X70365904Y-52617714D01*
X70318285Y-52522476D01*
X70318285Y-52474857D01*
X70365904Y-52379619D01*
X70413523Y-52332000D01*
X70508761Y-52284380D01*
X70699238Y-52284380D01*
X70794476Y-52332000D01*
X70842095Y-52379619D01*
X70889714Y-52474857D01*
X70889714Y-52522476D01*
X70842095Y-52617714D01*
X70794476Y-52665333D01*
X70699238Y-52712952D01*
X70508761Y-52712952D01*
X70413523Y-52760571D01*
X70365904Y-52808190D01*
X70318285Y-52903428D01*
X70318285Y-53093904D01*
X70365904Y-53189142D01*
X70413523Y-53236761D01*
X70508761Y-53284380D01*
X70699238Y-53284380D01*
X70794476Y-53236761D01*
X70842095Y-53189142D01*
X70889714Y-53093904D01*
X70889714Y-52903428D01*
X70842095Y-52808190D01*
X70794476Y-52760571D01*
X70699238Y-52712952D01*
%TO.C,C9*%
X45299333Y-32361142D02*
X45251714Y-32408761D01*
X45108857Y-32456380D01*
X45013619Y-32456380D01*
X44870761Y-32408761D01*
X44775523Y-32313523D01*
X44727904Y-32218285D01*
X44680285Y-32027809D01*
X44680285Y-31884952D01*
X44727904Y-31694476D01*
X44775523Y-31599238D01*
X44870761Y-31504000D01*
X45013619Y-31456380D01*
X45108857Y-31456380D01*
X45251714Y-31504000D01*
X45299333Y-31551619D01*
X45775523Y-32456380D02*
X45966000Y-32456380D01*
X46061238Y-32408761D01*
X46108857Y-32361142D01*
X46204095Y-32218285D01*
X46251714Y-32027809D01*
X46251714Y-31646857D01*
X46204095Y-31551619D01*
X46156476Y-31504000D01*
X46061238Y-31456380D01*
X45870761Y-31456380D01*
X45775523Y-31504000D01*
X45727904Y-31551619D01*
X45680285Y-31646857D01*
X45680285Y-31884952D01*
X45727904Y-31980190D01*
X45775523Y-32027809D01*
X45870761Y-32075428D01*
X46061238Y-32075428D01*
X46156476Y-32027809D01*
X46204095Y-31980190D01*
X46251714Y-31884952D01*
%TO.C,C10*%
X59863642Y-41029142D02*
X59816023Y-41076761D01*
X59673166Y-41124380D01*
X59577928Y-41124380D01*
X59435071Y-41076761D01*
X59339833Y-40981523D01*
X59292214Y-40886285D01*
X59244595Y-40695809D01*
X59244595Y-40552952D01*
X59292214Y-40362476D01*
X59339833Y-40267238D01*
X59435071Y-40172000D01*
X59577928Y-40124380D01*
X59673166Y-40124380D01*
X59816023Y-40172000D01*
X59863642Y-40219619D01*
X60816023Y-41124380D02*
X60244595Y-41124380D01*
X60530309Y-41124380D02*
X60530309Y-40124380D01*
X60435071Y-40267238D01*
X60339833Y-40362476D01*
X60244595Y-40410095D01*
X61435071Y-40124380D02*
X61530309Y-40124380D01*
X61625547Y-40172000D01*
X61673166Y-40219619D01*
X61720785Y-40314857D01*
X61768404Y-40505333D01*
X61768404Y-40743428D01*
X61720785Y-40933904D01*
X61673166Y-41029142D01*
X61625547Y-41076761D01*
X61530309Y-41124380D01*
X61435071Y-41124380D01*
X61339833Y-41076761D01*
X61292214Y-41029142D01*
X61244595Y-40933904D01*
X61196976Y-40743428D01*
X61196976Y-40505333D01*
X61244595Y-40314857D01*
X61292214Y-40219619D01*
X61339833Y-40172000D01*
X61435071Y-40124380D01*
%TO.C,C11*%
X61460142Y-28649142D02*
X61412523Y-28696761D01*
X61269666Y-28744380D01*
X61174428Y-28744380D01*
X61031571Y-28696761D01*
X60936333Y-28601523D01*
X60888714Y-28506285D01*
X60841095Y-28315809D01*
X60841095Y-28172952D01*
X60888714Y-27982476D01*
X60936333Y-27887238D01*
X61031571Y-27792000D01*
X61174428Y-27744380D01*
X61269666Y-27744380D01*
X61412523Y-27792000D01*
X61460142Y-27839619D01*
X62412523Y-28744380D02*
X61841095Y-28744380D01*
X62126809Y-28744380D02*
X62126809Y-27744380D01*
X62031571Y-27887238D01*
X61936333Y-27982476D01*
X61841095Y-28030095D01*
X63364904Y-28744380D02*
X62793476Y-28744380D01*
X63079190Y-28744380D02*
X63079190Y-27744380D01*
X62983952Y-27887238D01*
X62888714Y-27982476D01*
X62793476Y-28030095D01*
%TO.C,C12*%
X69969142Y-50903142D02*
X69921523Y-50950761D01*
X69778666Y-50998380D01*
X69683428Y-50998380D01*
X69540571Y-50950761D01*
X69445333Y-50855523D01*
X69397714Y-50760285D01*
X69350095Y-50569809D01*
X69350095Y-50426952D01*
X69397714Y-50236476D01*
X69445333Y-50141238D01*
X69540571Y-50046000D01*
X69683428Y-49998380D01*
X69778666Y-49998380D01*
X69921523Y-50046000D01*
X69969142Y-50093619D01*
X70921523Y-50998380D02*
X70350095Y-50998380D01*
X70635809Y-50998380D02*
X70635809Y-49998380D01*
X70540571Y-50141238D01*
X70445333Y-50236476D01*
X70350095Y-50284095D01*
X71302476Y-50093619D02*
X71350095Y-50046000D01*
X71445333Y-49998380D01*
X71683428Y-49998380D01*
X71778666Y-50046000D01*
X71826285Y-50093619D01*
X71873904Y-50188857D01*
X71873904Y-50284095D01*
X71826285Y-50426952D01*
X71254857Y-50998380D01*
X71873904Y-50998380D01*
%TO.C,D1*%
X45362904Y-42489380D02*
X45362904Y-41489380D01*
X45601000Y-41489380D01*
X45743857Y-41537000D01*
X45839095Y-41632238D01*
X45886714Y-41727476D01*
X45934333Y-41917952D01*
X45934333Y-42060809D01*
X45886714Y-42251285D01*
X45839095Y-42346523D01*
X45743857Y-42441761D01*
X45601000Y-42489380D01*
X45362904Y-42489380D01*
X46886714Y-42489380D02*
X46315285Y-42489380D01*
X46601000Y-42489380D02*
X46601000Y-41489380D01*
X46505761Y-41632238D01*
X46410523Y-41727476D01*
X46315285Y-41775095D01*
%TO.C,D2*%
X40536904Y-39314380D02*
X40536904Y-38314380D01*
X40775000Y-38314380D01*
X40917857Y-38362000D01*
X41013095Y-38457238D01*
X41060714Y-38552476D01*
X41108333Y-38742952D01*
X41108333Y-38885809D01*
X41060714Y-39076285D01*
X41013095Y-39171523D01*
X40917857Y-39266761D01*
X40775000Y-39314380D01*
X40536904Y-39314380D01*
X41489285Y-38409619D02*
X41536904Y-38362000D01*
X41632142Y-38314380D01*
X41870238Y-38314380D01*
X41965476Y-38362000D01*
X42013095Y-38409619D01*
X42060714Y-38504857D01*
X42060714Y-38600095D01*
X42013095Y-38742952D01*
X41441666Y-39314380D01*
X42060714Y-39314380D01*
X47490095Y-37409380D02*
X47490095Y-36409380D01*
X48061523Y-37409380D02*
X47632952Y-36837952D01*
X48061523Y-36409380D02*
X47490095Y-36980809D01*
%TO.C,D3*%
X75665104Y-38704780D02*
X75665104Y-37704780D01*
X75903200Y-37704780D01*
X76046057Y-37752400D01*
X76141295Y-37847638D01*
X76188914Y-37942876D01*
X76236533Y-38133352D01*
X76236533Y-38276209D01*
X76188914Y-38466685D01*
X76141295Y-38561923D01*
X76046057Y-38657161D01*
X75903200Y-38704780D01*
X75665104Y-38704780D01*
X76569866Y-37704780D02*
X77188914Y-37704780D01*
X76855580Y-38085733D01*
X76998438Y-38085733D01*
X77093676Y-38133352D01*
X77141295Y-38180971D01*
X77188914Y-38276209D01*
X77188914Y-38514304D01*
X77141295Y-38609542D01*
X77093676Y-38657161D01*
X76998438Y-38704780D01*
X76712723Y-38704780D01*
X76617485Y-38657161D01*
X76569866Y-38609542D01*
%TO.C,D4*%
X51031904Y-42492380D02*
X51031904Y-41492380D01*
X51270000Y-41492380D01*
X51412857Y-41540000D01*
X51508095Y-41635238D01*
X51555714Y-41730476D01*
X51603333Y-41920952D01*
X51603333Y-42063809D01*
X51555714Y-42254285D01*
X51508095Y-42349523D01*
X51412857Y-42444761D01*
X51270000Y-42492380D01*
X51031904Y-42492380D01*
X52460476Y-41825714D02*
X52460476Y-42492380D01*
X52222380Y-41444761D02*
X51984285Y-42159047D01*
X52603333Y-42159047D01*
%TO.C,J1*%
X57197666Y-26249380D02*
X57197666Y-26963666D01*
X57150047Y-27106523D01*
X57054809Y-27201761D01*
X56911952Y-27249380D01*
X56816714Y-27249380D01*
X58197666Y-27249380D02*
X57626238Y-27249380D01*
X57911952Y-27249380D02*
X57911952Y-26249380D01*
X57816714Y-26392238D01*
X57721476Y-26487476D01*
X57626238Y-26535095D01*
%TO.C,J2*%
X75358666Y-26249380D02*
X75358666Y-26963666D01*
X75311047Y-27106523D01*
X75215809Y-27201761D01*
X75072952Y-27249380D01*
X74977714Y-27249380D01*
X75787238Y-26344619D02*
X75834857Y-26297000D01*
X75930095Y-26249380D01*
X76168190Y-26249380D01*
X76263428Y-26297000D01*
X76311047Y-26344619D01*
X76358666Y-26439857D01*
X76358666Y-26535095D01*
X76311047Y-26677952D01*
X75739619Y-27249380D01*
X76358666Y-27249380D01*
%TO.C,L1*%
X25193333Y-30504380D02*
X24717142Y-30504380D01*
X24717142Y-29504380D01*
X26050476Y-30504380D02*
X25479047Y-30504380D01*
X25764761Y-30504380D02*
X25764761Y-29504380D01*
X25669523Y-29647238D01*
X25574285Y-29742476D01*
X25479047Y-29790095D01*
%TO.C,R1*%
X22058333Y-46680380D02*
X21725000Y-46204190D01*
X21486904Y-46680380D02*
X21486904Y-45680380D01*
X21867857Y-45680380D01*
X21963095Y-45728000D01*
X22010714Y-45775619D01*
X22058333Y-45870857D01*
X22058333Y-46013714D01*
X22010714Y-46108952D01*
X21963095Y-46156571D01*
X21867857Y-46204190D01*
X21486904Y-46204190D01*
X23010714Y-46680380D02*
X22439285Y-46680380D01*
X22725000Y-46680380D02*
X22725000Y-45680380D01*
X22629761Y-45823238D01*
X22534523Y-45918476D01*
X22439285Y-45966095D01*
%TO.C,R2*%
X36536333Y-38171380D02*
X36203000Y-37695190D01*
X35964904Y-38171380D02*
X35964904Y-37171380D01*
X36345857Y-37171380D01*
X36441095Y-37219000D01*
X36488714Y-37266619D01*
X36536333Y-37361857D01*
X36536333Y-37504714D01*
X36488714Y-37599952D01*
X36441095Y-37647571D01*
X36345857Y-37695190D01*
X35964904Y-37695190D01*
X36917285Y-37266619D02*
X36964904Y-37219000D01*
X37060142Y-37171380D01*
X37298238Y-37171380D01*
X37393476Y-37219000D01*
X37441095Y-37266619D01*
X37488714Y-37361857D01*
X37488714Y-37457095D01*
X37441095Y-37599952D01*
X36869666Y-38171380D01*
X37488714Y-38171380D01*
%TO.C,R3*%
X41616333Y-49763180D02*
X41283000Y-49286990D01*
X41044904Y-49763180D02*
X41044904Y-48763180D01*
X41425857Y-48763180D01*
X41521095Y-48810800D01*
X41568714Y-48858419D01*
X41616333Y-48953657D01*
X41616333Y-49096514D01*
X41568714Y-49191752D01*
X41521095Y-49239371D01*
X41425857Y-49286990D01*
X41044904Y-49286990D01*
X41949666Y-48763180D02*
X42568714Y-48763180D01*
X42235380Y-49144133D01*
X42378238Y-49144133D01*
X42473476Y-49191752D01*
X42521095Y-49239371D01*
X42568714Y-49334609D01*
X42568714Y-49572704D01*
X42521095Y-49667942D01*
X42473476Y-49715561D01*
X42378238Y-49763180D01*
X42092523Y-49763180D01*
X41997285Y-49715561D01*
X41949666Y-49667942D01*
%TO.C,R4*%
X36815733Y-52480980D02*
X36482400Y-52004790D01*
X36244304Y-52480980D02*
X36244304Y-51480980D01*
X36625257Y-51480980D01*
X36720495Y-51528600D01*
X36768114Y-51576219D01*
X36815733Y-51671457D01*
X36815733Y-51814314D01*
X36768114Y-51909552D01*
X36720495Y-51957171D01*
X36625257Y-52004790D01*
X36244304Y-52004790D01*
X37672876Y-51814314D02*
X37672876Y-52480980D01*
X37434780Y-51433361D02*
X37196685Y-52147647D01*
X37815733Y-52147647D01*
%TO.C,R5*%
X49617333Y-32456380D02*
X49284000Y-31980190D01*
X49045904Y-32456380D02*
X49045904Y-31456380D01*
X49426857Y-31456380D01*
X49522095Y-31504000D01*
X49569714Y-31551619D01*
X49617333Y-31646857D01*
X49617333Y-31789714D01*
X49569714Y-31884952D01*
X49522095Y-31932571D01*
X49426857Y-31980190D01*
X49045904Y-31980190D01*
X50522095Y-31456380D02*
X50045904Y-31456380D01*
X49998285Y-31932571D01*
X50045904Y-31884952D01*
X50141142Y-31837333D01*
X50379238Y-31837333D01*
X50474476Y-31884952D01*
X50522095Y-31932571D01*
X50569714Y-32027809D01*
X50569714Y-32265904D01*
X50522095Y-32361142D01*
X50474476Y-32408761D01*
X50379238Y-32456380D01*
X50141142Y-32456380D01*
X50045904Y-32408761D01*
X49998285Y-32361142D01*
%TO.C,R6*%
X73848933Y-33091380D02*
X73515600Y-32615190D01*
X73277504Y-33091380D02*
X73277504Y-32091380D01*
X73658457Y-32091380D01*
X73753695Y-32139000D01*
X73801314Y-32186619D01*
X73848933Y-32281857D01*
X73848933Y-32424714D01*
X73801314Y-32519952D01*
X73753695Y-32567571D01*
X73658457Y-32615190D01*
X73277504Y-32615190D01*
X74706076Y-32091380D02*
X74515600Y-32091380D01*
X74420361Y-32139000D01*
X74372742Y-32186619D01*
X74277504Y-32329476D01*
X74229885Y-32519952D01*
X74229885Y-32900904D01*
X74277504Y-32996142D01*
X74325123Y-33043761D01*
X74420361Y-33091380D01*
X74610838Y-33091380D01*
X74706076Y-33043761D01*
X74753695Y-32996142D01*
X74801314Y-32900904D01*
X74801314Y-32662809D01*
X74753695Y-32567571D01*
X74706076Y-32519952D01*
X74610838Y-32472333D01*
X74420361Y-32472333D01*
X74325123Y-32519952D01*
X74277504Y-32567571D01*
X74229885Y-32662809D01*
%TO.C,R8*%
X73874333Y-30652980D02*
X73541000Y-30176790D01*
X73302904Y-30652980D02*
X73302904Y-29652980D01*
X73683857Y-29652980D01*
X73779095Y-29700600D01*
X73826714Y-29748219D01*
X73874333Y-29843457D01*
X73874333Y-29986314D01*
X73826714Y-30081552D01*
X73779095Y-30129171D01*
X73683857Y-30176790D01*
X73302904Y-30176790D01*
X74445761Y-30081552D02*
X74350523Y-30033933D01*
X74302904Y-29986314D01*
X74255285Y-29891076D01*
X74255285Y-29843457D01*
X74302904Y-29748219D01*
X74350523Y-29700600D01*
X74445761Y-29652980D01*
X74636238Y-29652980D01*
X74731476Y-29700600D01*
X74779095Y-29748219D01*
X74826714Y-29843457D01*
X74826714Y-29891076D01*
X74779095Y-29986314D01*
X74731476Y-30033933D01*
X74636238Y-30081552D01*
X74445761Y-30081552D01*
X74350523Y-30129171D01*
X74302904Y-30176790D01*
X74255285Y-30272028D01*
X74255285Y-30462504D01*
X74302904Y-30557742D01*
X74350523Y-30605361D01*
X74445761Y-30652980D01*
X74636238Y-30652980D01*
X74731476Y-30605361D01*
X74779095Y-30557742D01*
X74826714Y-30462504D01*
X74826714Y-30272028D01*
X74779095Y-30176790D01*
X74731476Y-30129171D01*
X74636238Y-30081552D01*
%TO.C,R9*%
X73975933Y-35504380D02*
X73642600Y-35028190D01*
X73404504Y-35504380D02*
X73404504Y-34504380D01*
X73785457Y-34504380D01*
X73880695Y-34552000D01*
X73928314Y-34599619D01*
X73975933Y-34694857D01*
X73975933Y-34837714D01*
X73928314Y-34932952D01*
X73880695Y-34980571D01*
X73785457Y-35028190D01*
X73404504Y-35028190D01*
X74452123Y-35504380D02*
X74642600Y-35504380D01*
X74737838Y-35456761D01*
X74785457Y-35409142D01*
X74880695Y-35266285D01*
X74928314Y-35075809D01*
X74928314Y-34694857D01*
X74880695Y-34599619D01*
X74833076Y-34552000D01*
X74737838Y-34504380D01*
X74547361Y-34504380D01*
X74452123Y-34552000D01*
X74404504Y-34599619D01*
X74356885Y-34694857D01*
X74356885Y-34932952D01*
X74404504Y-35028190D01*
X74452123Y-35075809D01*
X74547361Y-35123428D01*
X74737838Y-35123428D01*
X74833076Y-35075809D01*
X74880695Y-35028190D01*
X74928314Y-34932952D01*
%TO.C,R10*%
X66397142Y-43760380D02*
X66063809Y-43284190D01*
X65825714Y-43760380D02*
X65825714Y-42760380D01*
X66206666Y-42760380D01*
X66301904Y-42808000D01*
X66349523Y-42855619D01*
X66397142Y-42950857D01*
X66397142Y-43093714D01*
X66349523Y-43188952D01*
X66301904Y-43236571D01*
X66206666Y-43284190D01*
X65825714Y-43284190D01*
X67349523Y-43760380D02*
X66778095Y-43760380D01*
X67063809Y-43760380D02*
X67063809Y-42760380D01*
X66968571Y-42903238D01*
X66873333Y-42998476D01*
X66778095Y-43046095D01*
X67968571Y-42760380D02*
X68063809Y-42760380D01*
X68159047Y-42808000D01*
X68206666Y-42855619D01*
X68254285Y-42950857D01*
X68301904Y-43141333D01*
X68301904Y-43379428D01*
X68254285Y-43569904D01*
X68206666Y-43665142D01*
X68159047Y-43712761D01*
X68063809Y-43760380D01*
X67968571Y-43760380D01*
X67873333Y-43712761D01*
X67825714Y-43665142D01*
X67778095Y-43569904D01*
X67730476Y-43379428D01*
X67730476Y-43141333D01*
X67778095Y-42950857D01*
X67825714Y-42855619D01*
X67873333Y-42808000D01*
X67968571Y-42760380D01*
%TO.C,R12*%
X69969142Y-49220380D02*
X69635809Y-48744190D01*
X69397714Y-49220380D02*
X69397714Y-48220380D01*
X69778666Y-48220380D01*
X69873904Y-48268000D01*
X69921523Y-48315619D01*
X69969142Y-48410857D01*
X69969142Y-48553714D01*
X69921523Y-48648952D01*
X69873904Y-48696571D01*
X69778666Y-48744190D01*
X69397714Y-48744190D01*
X70921523Y-49220380D02*
X70350095Y-49220380D01*
X70635809Y-49220380D02*
X70635809Y-48220380D01*
X70540571Y-48363238D01*
X70445333Y-48458476D01*
X70350095Y-48506095D01*
X71302476Y-48315619D02*
X71350095Y-48268000D01*
X71445333Y-48220380D01*
X71683428Y-48220380D01*
X71778666Y-48268000D01*
X71826285Y-48315619D01*
X71873904Y-48410857D01*
X71873904Y-48506095D01*
X71826285Y-48648952D01*
X71254857Y-49220380D01*
X71873904Y-49220380D01*
%TO.C,R13*%
X54941142Y-50808380D02*
X54607809Y-50332190D01*
X54369714Y-50808380D02*
X54369714Y-49808380D01*
X54750666Y-49808380D01*
X54845904Y-49856000D01*
X54893523Y-49903619D01*
X54941142Y-49998857D01*
X54941142Y-50141714D01*
X54893523Y-50236952D01*
X54845904Y-50284571D01*
X54750666Y-50332190D01*
X54369714Y-50332190D01*
X55893523Y-50808380D02*
X55322095Y-50808380D01*
X55607809Y-50808380D02*
X55607809Y-49808380D01*
X55512571Y-49951238D01*
X55417333Y-50046476D01*
X55322095Y-50094095D01*
X56226857Y-49808380D02*
X56845904Y-49808380D01*
X56512571Y-50189333D01*
X56655428Y-50189333D01*
X56750666Y-50236952D01*
X56798285Y-50284571D01*
X56845904Y-50379809D01*
X56845904Y-50617904D01*
X56798285Y-50713142D01*
X56750666Y-50760761D01*
X56655428Y-50808380D01*
X56369714Y-50808380D01*
X56274476Y-50760761D01*
X56226857Y-50713142D01*
%TO.C,RV1*%
X75858761Y-46680380D02*
X75525428Y-46204190D01*
X75287333Y-46680380D02*
X75287333Y-45680380D01*
X75668285Y-45680380D01*
X75763523Y-45728000D01*
X75811142Y-45775619D01*
X75858761Y-45870857D01*
X75858761Y-46013714D01*
X75811142Y-46108952D01*
X75763523Y-46156571D01*
X75668285Y-46204190D01*
X75287333Y-46204190D01*
X76144476Y-45680380D02*
X76477809Y-46680380D01*
X76811142Y-45680380D01*
X77668285Y-46680380D02*
X77096857Y-46680380D01*
X77382571Y-46680380D02*
X77382571Y-45680380D01*
X77287333Y-45823238D01*
X77192095Y-45918476D01*
X77096857Y-45966095D01*
%TO.C,TP1*%
X20709095Y-40981380D02*
X21280523Y-40981380D01*
X20994809Y-41981380D02*
X20994809Y-40981380D01*
X21613857Y-41981380D02*
X21613857Y-40981380D01*
X21994809Y-40981380D01*
X22090047Y-41029000D01*
X22137666Y-41076619D01*
X22185285Y-41171857D01*
X22185285Y-41314714D01*
X22137666Y-41409952D01*
X22090047Y-41457571D01*
X21994809Y-41505190D01*
X21613857Y-41505190D01*
X23137666Y-41981380D02*
X22566238Y-41981380D01*
X22851952Y-41981380D02*
X22851952Y-40981380D01*
X22756714Y-41124238D01*
X22661476Y-41219476D01*
X22566238Y-41267095D01*
%TO.C,TP2*%
X25535095Y-53935380D02*
X26106523Y-53935380D01*
X25820809Y-54935380D02*
X25820809Y-53935380D01*
X26439857Y-54935380D02*
X26439857Y-53935380D01*
X26820809Y-53935380D01*
X26916047Y-53983000D01*
X26963666Y-54030619D01*
X27011285Y-54125857D01*
X27011285Y-54268714D01*
X26963666Y-54363952D01*
X26916047Y-54411571D01*
X26820809Y-54459190D01*
X26439857Y-54459190D01*
X27392238Y-54030619D02*
X27439857Y-53983000D01*
X27535095Y-53935380D01*
X27773190Y-53935380D01*
X27868428Y-53983000D01*
X27916047Y-54030619D01*
X27963666Y-54125857D01*
X27963666Y-54221095D01*
X27916047Y-54363952D01*
X27344619Y-54935380D01*
X27963666Y-54935380D01*
%TO.C,TP3*%
X34976095Y-41440380D02*
X35547523Y-41440380D01*
X35261809Y-42440380D02*
X35261809Y-41440380D01*
X35880857Y-42440380D02*
X35880857Y-41440380D01*
X36261809Y-41440380D01*
X36357047Y-41488000D01*
X36404666Y-41535619D01*
X36452285Y-41630857D01*
X36452285Y-41773714D01*
X36404666Y-41868952D01*
X36357047Y-41916571D01*
X36261809Y-41964190D01*
X35880857Y-41964190D01*
X36785619Y-41440380D02*
X37404666Y-41440380D01*
X37071333Y-41821333D01*
X37214190Y-41821333D01*
X37309428Y-41868952D01*
X37357047Y-41916571D01*
X37404666Y-42011809D01*
X37404666Y-42249904D01*
X37357047Y-42345142D01*
X37309428Y-42392761D01*
X37214190Y-42440380D01*
X36928476Y-42440380D01*
X36833238Y-42392761D01*
X36785619Y-42345142D01*
%TO.C,TP4*%
X53221095Y-30186380D02*
X53792523Y-30186380D01*
X53506809Y-31186380D02*
X53506809Y-30186380D01*
X54125857Y-31186380D02*
X54125857Y-30186380D01*
X54506809Y-30186380D01*
X54602047Y-30234000D01*
X54649666Y-30281619D01*
X54697285Y-30376857D01*
X54697285Y-30519714D01*
X54649666Y-30614952D01*
X54602047Y-30662571D01*
X54506809Y-30710190D01*
X54125857Y-30710190D01*
X55554428Y-30519714D02*
X55554428Y-31186380D01*
X55316333Y-30138761D02*
X55078238Y-30853047D01*
X55697285Y-30853047D01*
%TO.C,TP5*%
X60079095Y-38085780D02*
X60650523Y-38085780D01*
X60364809Y-39085780D02*
X60364809Y-38085780D01*
X60983857Y-39085780D02*
X60983857Y-38085780D01*
X61364809Y-38085780D01*
X61460047Y-38133400D01*
X61507666Y-38181019D01*
X61555285Y-38276257D01*
X61555285Y-38419114D01*
X61507666Y-38514352D01*
X61460047Y-38561971D01*
X61364809Y-38609590D01*
X60983857Y-38609590D01*
X62460047Y-38085780D02*
X61983857Y-38085780D01*
X61936238Y-38561971D01*
X61983857Y-38514352D01*
X62079095Y-38466733D01*
X62317190Y-38466733D01*
X62412428Y-38514352D01*
X62460047Y-38561971D01*
X62507666Y-38657209D01*
X62507666Y-38895304D01*
X62460047Y-38990542D01*
X62412428Y-39038161D01*
X62317190Y-39085780D01*
X62079095Y-39085780D01*
X61983857Y-39038161D01*
X61936238Y-38990542D01*
%TO.C,TP6*%
X50427095Y-54062380D02*
X50998523Y-54062380D01*
X50712809Y-55062380D02*
X50712809Y-54062380D01*
X51331857Y-55062380D02*
X51331857Y-54062380D01*
X51712809Y-54062380D01*
X51808047Y-54110000D01*
X51855666Y-54157619D01*
X51903285Y-54252857D01*
X51903285Y-54395714D01*
X51855666Y-54490952D01*
X51808047Y-54538571D01*
X51712809Y-54586190D01*
X51331857Y-54586190D01*
X52760428Y-54062380D02*
X52569952Y-54062380D01*
X52474714Y-54110000D01*
X52427095Y-54157619D01*
X52331857Y-54300476D01*
X52284238Y-54490952D01*
X52284238Y-54871904D01*
X52331857Y-54967142D01*
X52379476Y-55014761D01*
X52474714Y-55062380D01*
X52665190Y-55062380D01*
X52760428Y-55014761D01*
X52808047Y-54967142D01*
X52855666Y-54871904D01*
X52855666Y-54633809D01*
X52808047Y-54538571D01*
X52760428Y-54490952D01*
X52665190Y-54443333D01*
X52474714Y-54443333D01*
X52379476Y-54490952D01*
X52331857Y-54538571D01*
X52284238Y-54633809D01*
%TO.C,TP7*%
X54838895Y-35776180D02*
X55410323Y-35776180D01*
X55124609Y-36776180D02*
X55124609Y-35776180D01*
X55743657Y-36776180D02*
X55743657Y-35776180D01*
X56124609Y-35776180D01*
X56219847Y-35823800D01*
X56267466Y-35871419D01*
X56315085Y-35966657D01*
X56315085Y-36109514D01*
X56267466Y-36204752D01*
X56219847Y-36252371D01*
X56124609Y-36299990D01*
X55743657Y-36299990D01*
X56648419Y-35776180D02*
X57315085Y-35776180D01*
X56886514Y-36776180D01*
%TO.C,U1*%
X33655095Y-52792380D02*
X33655095Y-53601904D01*
X33702714Y-53697142D01*
X33750333Y-53744761D01*
X33845571Y-53792380D01*
X34036047Y-53792380D01*
X34131285Y-53744761D01*
X34178904Y-53697142D01*
X34226523Y-53601904D01*
X34226523Y-52792380D01*
X35226523Y-53792380D02*
X34655095Y-53792380D01*
X34940809Y-53792380D02*
X34940809Y-52792380D01*
X34845571Y-52935238D01*
X34750333Y-53030476D01*
X34655095Y-53078095D01*
%TO.C,U2*%
X62611095Y-50125380D02*
X62611095Y-50934904D01*
X62658714Y-51030142D01*
X62706333Y-51077761D01*
X62801571Y-51125380D01*
X62992047Y-51125380D01*
X63087285Y-51077761D01*
X63134904Y-51030142D01*
X63182523Y-50934904D01*
X63182523Y-50125380D01*
X63611095Y-50220619D02*
X63658714Y-50173000D01*
X63753952Y-50125380D01*
X63992047Y-50125380D01*
X64087285Y-50173000D01*
X64134904Y-50220619D01*
X64182523Y-50315857D01*
X64182523Y-50411095D01*
X64134904Y-50553952D01*
X63563476Y-51125380D01*
X64182523Y-51125380D01*
%TO.C,U3*%
X66802095Y-30313380D02*
X66802095Y-31122904D01*
X66849714Y-31218142D01*
X66897333Y-31265761D01*
X66992571Y-31313380D01*
X67183047Y-31313380D01*
X67278285Y-31265761D01*
X67325904Y-31218142D01*
X67373523Y-31122904D01*
X67373523Y-30313380D01*
X67754476Y-30313380D02*
X68373523Y-30313380D01*
X68040190Y-30694333D01*
X68183047Y-30694333D01*
X68278285Y-30741952D01*
X68325904Y-30789571D01*
X68373523Y-30884809D01*
X68373523Y-31122904D01*
X68325904Y-31218142D01*
X68278285Y-31265761D01*
X68183047Y-31313380D01*
X67897333Y-31313380D01*
X67802095Y-31265761D01*
X67754476Y-31218142D01*
%TD*%
M02*
